<ttFont>
          <CharString index="0">
            rmoveto
            -171 -130 -65 -129 -91 hvcurveto
            -101 callsubr
            -37 callsubr
            -240 vmoveto
            -92 callgsubr
          </CharString>
          <CharString index="1">
            -96 callsubr
            -99 callsubr
            return
          </CharString>
          <CharString index="2">
            rmoveto
            -27 -52 -72 -100 -118 -149 rrcurveto
            -27 168 vlineto
            65 52 62 59 59 67 62 -71 63 -59 64 -48 rrcurveto
            168 27 hlineto
            -113 143 -73 100 -31 58 rrcurveto
            return
          </CharString>
          <CharString index="3">
            -26 callsubr
            535 142 hlineto
            159 -35 124 -70 88 vhcurveto
            89 -70 -96 44 -121 hhcurveto
            -130 -101 -52 -103 -73 hvcurveto
            -73 -103 -36 -144 -184 vvcurveto
            -181 40 -141 80 -99 vhcurveto
            -99 81 110 -49 139 hhcurveto
            119 103 26 51 85 -80 callsubr
            endchar
          </CharString>
          <CharString index="4">
            -363 1468 rlineto
            -369 hlineto
            -362 -1468 -74 callgsubr
            -135 610 -94 callgsubr
          </CharString>
          <CharString index="5">
            53 -152 rlineto
            195 748 hlineto
            248 -126 141 -236 -51 callgsubr
            vhcurveto
            457 -510 -87 callsubr
          </CharString>
          <CharString index="6">
            -86 callsubr
            169 129 65 130 91 hvcurveto
            26 callsubr
            45 186 242 -57 callsubr
            return
          </CharString>
          <CharString index="7">
            -83 callsubr
            hintmask 10111110
            -89 callsubr
            hintmask 01111110
            -102 callsubr
          </CharString>
          <CharString index="8">
            399 hmoveto
            -84 -49 -49 -80 -77 50 -50 83 83 50 48 79 81 -52 48 -81 hvcurveto
            return
          </CharString>
          <CharString index="9">
            -51 callsubr
            -60 callgsubr
            -75 callsubr
            177 -39 140 -78 103 vhcurveto
            return
          </CharString>
          <CharString index="10">
            1870 -106 callsubr
            return
          </CharString>
          <CharString index="11">
            rmoveto
            -83 -49 -48 -81 -80 49 -47 83 83 50 51 76 77 -50 52 -83 hvcurveto
            return
          </CharString>
          <CharString index="12">
            0 callsubr
            hintmask 11111010
            -104 callsubr
          </CharString>
          <CharString index="13">
            1907 -105 callgsubr
            return
          </CharString>
          <CharString index="14">
            rmoveto
            -270 -968 hlineto
            -175 -65 -98 -115 -123 -62 93 186 vhcurveto
            962 -270 -942 vlineto
            -356 155 -184 291 297 162 188 348 vhcurveto
            endchar
          </CharString>
          <CharString index="15">
            rmoveto
            111 49 -115 -233 -235 -53 -117 -107 -112 -48 120 232 233 48 115 112 hvcurveto
            endchar
          </CharString>
          <CharString index="16">
            1907 -105 callsubr
            return
          </CharString>
          <CharString index="17">
            rmoveto
            -168 hlineto
            -61 -50 -62 -59 -62 -69 -63 73 -64 59 -63 46 rrcurveto
            -168 -27 hlineto
            115 -146 73 -100 29 -55 rrcurveto
            277 hlineto
            35 62 72 100 110 139 rrcurveto
            return
          </CharString>
          <CharString index="18">
            -109 23 -86 47 -61 vhcurveto
            -61 47 65 -31 82 hhcurveto
            64 53 12 25 42 hvcurveto
            42 25 41 45 39 65 rrcurveto
            6 hlineto
            return
          </CharString>
          <CharString index="19">
            -109 -56 -60 -104 -103 57 -61 108 105 61 60 104 105 -57 59 -109 hvcurveto
            return
          </CharString>
          <CharString index="20">
            rmoveto
            -94 vlineto
            -145 -63 -95 -97 -65 -33 46 92 124 55 61 121 7 vhcurveto
            endchar
          </CharString>
          <CharString index="21">
            -62 callsubr
            -244 45 -187 91 -130 vhcurveto
            -129 26 callsubr
            -65 169 hhcurveto
            return
          </CharString>
          <CharString index="22">
            90 45 -52 -104 hvcurveto
            -80 -81 callsubr
            return
          </CharString>
          <CharString index="23">
            248 129 129 217 50 -8 44 -15 37 hvcurveto
            -15 37 -22 34 -28 29 -28 29 -49 36 -69 42 -57 35 -40 29 -21 23 rrcurveto
            -21 23 -10 27 30 vvcurveto
            52 34 41 68 54 63 -19 -39 71 vhcurveto
            87 191 rlineto
            52 -87 -93 26 -99 hhcurveto
            -113 -90 -28 -55 -65 hvcurveto
            -65 -55 -32 -75 -95 vvcurveto
            -148 65 -102 161 -96 vhcurveto
            61 -37 41 -31 23 -25 rrcurveto
            23 -25 11 -30 -34 vvcurveto
            -67 -44 -44 -83 -37 -44 8 17 -49 vhcurveto
            -49 17 -42 21 -37 25 rrcurveto
            endchar
          </CharString>
          <CharString index="24">
            -36 callsubr
            -85 callsubr
            return
          </CharString>
          <CharString index="25">
            rmoveto
            -265 hlineto
            -47 -580 rlineto
            -304 -25 -150 -191 -258 hhcurveto
            -112 hlineto
            return
          </CharString>
          <CharString index="26">
            vlineto
            -148 -6 64 callsubr
            -12 -129 -109 -235 vvcurveto
            return
          </CharString>
          <CharString index="27">
            hvcurveto
            -483 625 rmoveto
            169 8 53 79 76 -39 callgsubr
            return
          </CharString>
          <CharString index="28">
            105 -17 52 -37 -56 vvcurveto
            -44 -29 -22 -59 -40 -40 6 11 -41 vhcurveto
            -154 vlineto
            -14 39 43 -7 49 hhcurveto
            199 92 89 143 return
          </CharString>
          <CharString index="29">
            vmoveto
            -106 callgsubr
          </CharString>
          <CharString index="30">
            272 -72 callgsubr
            69 -89 -358 -358 -69 -91 -90 -116 -193 35 0 vhcurveto
            -224 vlineto
            0 123 -28 186 139 292 84 582 -70 callsubr
            return
          </CharString>
          <CharString index="31">
            272 vstem
            87 1069 rmoveto
            132 9 rlineto
            -8 vlineto
            -71 -66 -74 -187 -171 vvcurveto
            -582 292 -84 139 28 callsubr
            -242 -176 -28 0 vhcurveto
            418 -189 rmoveto
            -20 callsubr
            -69 91 358 200 16 137 73 101 hvcurveto
            0 31 9 39 vhcurveto
            return
          </CharString>
          <CharString index="32">
            135 106 51 101 77 hvcurveto
            77 102 39 142 183 vvcurveto
            return
          </CharString>
          <CharString index="33">
            rmoveto
            -88 callsubr
            return
          </CharString>
          <CharString index="34">
            rmoveto
            235 -73 callgsubr
            vlineto
            endchar
          </CharString>
          <CharString index="35">
            79 59 -107 118 hhcurveto
            121 83 98 203 15 hvcurveto
            return
          </CharString>
          <CharString index="36">
            273 vstem
            55 1066 rmoveto
            10 95 57 6 80 hhcurveto
            127 32 -169 -176 hvcurveto
            -215 vlineto
            -183 -40 -131 -119 -93 -77 14 19 -62 vhcurveto
            -230 vlineto
            -18 60 112 -13 81 hhcurveto
            321 90 283 259 hvcurveto
            215 -44 callgsubr
            return
          </CharString>
          <CharString index="37">
            -16 callgsubr
            -213 -205 -148 -309 -331 203 -70 144 -19 vhcurveto
            return
          </CharString>
          <CharString index="38">
            rmoveto
            59 59 54 29 50 hhcurveto
            52 34 -32 -56 -35 -9 -33 -18 -31 hvcurveto
            -18 -31 -41 -51 -63 -71 -199 -222 rcurveline
            -157 570 186 -326 vlineto
            102 107 81 85 54 66 25 49 rlinecurve
            26 49 13 51 54 vvcurveto
            155 -97 95 -163 -108 -96 -42 -85 -85 vhcurveto
            endchar
          </CharString>
          <CharString index="39">
            rmoveto
            -107 callgsubr
            return
          </CharString>
          <CharString index="40">
            -32 58 57 36 34 52 -44 callsubr
            return
          </CharString>
          <CharString index="41">
            358 vlineto
            185 141 64 127 98 hvcurveto
            99 128 49 185 241 vvcurveto
            227 -47 176 -95 125 vhcurveto
            126 -95 -132 63 -170 hhcurveto
            -119 -235 rmoveto
            109 hlineto
            180 90 -163 -327 -333 -92 -166 -199 hvcurveto
            -88 return
          </CharString>
          <CharString index="42">
            1410 1 callgsubr
            60 callsubr
            -78 callsubr
          </CharString>
          <CharString index="43">
            60 callsubr
            -68 callsubr
            return
          </CharString>
          <CharString index="44">
            8 callsubr
            -59 callsubr
            12 callsubr
            70 203 rlineto
            -12 callgsubr
            return
          </CharString>
          <CharString index="45">
            -91 -129 -45 -185 -242 vvcurveto
            return
          </CharString>
          <CharString index="46">
            -48 callsubr
            106 328 -27 callsubr
            hintmask 11110100
            return
          </CharString>
          <CharString index="47">
            102 1068 rmoveto
            7 31 33 12 63 hhcurveto
            103 15 -86 -75 hvcurveto
            -481 vlineto
            -153 -18 -77 0 vhcurveto
            -286 -215 520 hlineto
            0 50 154 211 vvcurveto
            561 vlineto
            226 -34 158 -314 -87 -43 -13 -7 -33 vhcurveto
            return
          </CharString>
          <CharString index="48">
            158 1116 rmoveto
            -129 -80 rlineto
            -133 129 -903 266 903 184 211 -184 82 vlineto
            return
          </CharString>
          <CharString index="49">
            -52 callsubr
            -58 26 callgsubr
            return
          </CharString>
          <CharString index="50">
            vvcurveto
            242 -45 186 -90 129 vhcurveto
            return
          </CharString>
          <CharString index="51">
            335 -30 callsubr
            -277 hlineto
            362 -831 166 -254 rlineto
            -4 vlineto
            -172 14 rlineto
            -346 -215 831 158 hlineto
            -210 334 214 173 25 270 11 116 rlinecurve
            return
          </CharString>
          <CharString index="52">
            -63 callgsubr
            -250 -798 vlineto
            -97 6 -83 13 -70 vhcurveto
            -11 hlineto
            -448 1048 rlineto
            -334 -33 callgsubr
            252 799 hlineto
            93 -8 86 -17 81 vhcurveto
            13 hlineto
            452 -1059 rlineto
            endchar
          </CharString>
          <CharString index="53">
            8 callsubr
            55 1061 rmoveto
            9 64 88 12 80 hhcurveto
            127 39 -169 -176 hvcurveto
            -1229 266 1229 -44 callgsubr
            return
          </CharString>
          <CharString index="54">
            -21 callgsubr
            137 328 -11 callsubr
            return
          </CharString>
          <CharString index="55">
            -862 267 861 vlineto
            291 return
          </CharString>
          <CharString index="56">
            -77 -101 -38 -141 -181 vvcurveto
            return
          </CharString>
          <CharString index="57">
            1014 1124 rmoveto
            166 -880 -215 592 vlineto
            -148 -570 rlineto
            -41 -152 -36 -183 -136 vvcurveto
            -34 264 34 vlineto
            127 39 158 51 196 vhcurveto
            return
          </CharString>
          <CharString index="58">
            135 13 96 27 57 vhcurveto
            57 27 42 29 57 hhcurveto
            87 36 -84 -161 hvcurveto
            20 callgsubr
            267 -100 141 -203 -120 -92 -61 -103 -48 vhcurveto
            endchar
          </CharString>
          <CharString index="59">
            -78 -20 215 294 193 248 205 return
          </CharString>
          <CharString index="60">
            -63 callgsubr
            -20 return
          </CharString>
          <CharString index="61">
            352 46 callgsubr
            -193 -96 34 callsubr
            90 -154 199 192 103 160 -30 callgsubr
            226 -1483 rmoveto
            return
          </CharString>
          <CharString index="62">
            743 8 callgsubr
            -204 hlineto
            -742 2 callgsubr
            return
          </CharString>
          <CharString index="63">
            53 -36 34 -57 hvcurveto
            return
          </CharString>
          <CharString index="64">
            -52 callgsubr
            94 37 callsubr
            -25 callgsubr
            vstem
            return
          </CharString>
          <CharString index="65">
            vstem
            197 -8 callgsubr
            -37 -80 -35 -84 -32 -87 -32 -87 -24 -76 -17 -65 15 -22 rcurveline
            264 hlineto
            6 48 13 75 20 101 20 101 20 93 21 83 rrcurveto
            return
          </CharString>
          <CharString index="66">
            -26 callgsubr
            106 328 -21 callsubr
            return
          </CharString>
          <CharString index="67">
            rmoveto
            -42 callgsubr
          </CharString>
          <CharString index="68">
            265 133 266 return
          </CharString>
          <CharString index="69">
            hhcurveto
            -171 -130 -65 -129 -91 hvcurveto
            -86 callsubr
            return
          </CharString>
          <CharString index="70">
            130 -90 -129 65 -169 hhcurveto
            return
          </CharString>
          <CharString index="71">
            rmoveto
            52 87 76 26 67 hhcurveto
            return
          </CharString>
          <CharString index="72">
            -57 callgsubr
            131 37 callsubr
            0 1094 vstem
            return
          </CharString>
          <CharString index="73">
            -63 callgsubr
            -256 -33 callgsubr
            vlineto
            endchar
          </CharString>
          <CharString index="74">
            73 -112 -92 26 -107 hhcurveto
            -162 -127 -66 -133 -91 hvcurveto
            -91 -133 -45 -185 -237 vvcurveto
            -237 44 -185 88 -131 vhcurveto
            return
          </CharString>
          <CharString index="75">
            rmoveto
            -58 -35 -33 -54 -54 35 -67 callsubr
            return
          </CharString>
          <CharString index="76">
            -406 -67 callgsubr
            137 37 callsubr
            178 256 vstem
            return
          </CharString>
          <CharString index="77">
            -24 callsubr
            rmoveto
            return
          </CharString>
          <CharString index="78">
            vstem
            385 1462 47 callsubr
            -25 -163 -33 -167 -43 -171 rrcurveto
            203 hlineto
            84 188 59 160 33 131 rrcurveto
            return
          </CharString>
          <CharString index="79">
            13 callsubr
            33 53 -44 callsubr
            return
          </CharString>
          <CharString index="80">
            hstemhm
            74 270 -270 805 -261 261 return
          </CharString>
          <CharString index="81">
            -136 -81 95 199 -4 hvcurveto
            return
          </CharString>
          <CharString index="82">
            rmoveto
            -75 -15 -16 -33 -45 hhcurveto
            return
          </CharString>
          <CharString index="83">
            1290 return
          </CharString>
          <CharString index="84">
            vstem
            580 569 rmoveto
            -308 447 -198 14 callsubr
            198 -111 308 445 rlineto
            return
          </CharString>
          <CharString index="85">
            vstem
            580 905 -40 callgsubr
            -220 348 rlineto
            return
          </CharString>
          <CharString index="86">
            hstem
            7 callsubr
            272 vstem
            return
          </CharString>
          <CharString index="87">
            -10 callgsubr
            -90 return
          </CharString>
          <CharString index="88">
            1706 rmoveto
            -1 callsubr
            -73 22 -57 45 -42 vhcurveto
            -41 45 59 -21 73 hhcurveto
            return
          </CharString>
          <CharString index="89">
            vstem
            276 1137 -74 callsubr
            return
          </CharString>
          <CharString index="90">
            1114 -269 -534 vlineto
            return
          </CharString>
          <CharString index="91">
            139 292 84 582 return
          </CharString>
          <CharString index="92">
            465 1087 rmoveto
            0 44 6 24 -20 callsubr
            -68 91 358 -1 vhcurveto
            return
          </CharString>
          <CharString index="93">
            -47 -73 -69 -23 -67 hhcurveto
            -112 -46 113 231 236 47 118 113 43 49 -16 -33 55 hvcurveto
            return
          </CharString>
          <CharString index="94">
            rmoveto
            188 -613 -215 320 vlineto
            -342 -729 rlineto
            -170 649 215 -346 vlineto
            endchar
          </CharString>
          <CharString index="95">
            -185 -185 -24 -81 -56 -56 -22 35 callsubr
            return
          </CharString>
          <CharString index="96">
            hstem
            123 270 365 270 vstem
            return
          </CharString>
          <CharString index="97">
            hstemhm
            102 269 288 269 return
          </CharString>
          <CharString index="98">
            193 -86 192 hstemhm
            return
          </CharString>
          <CharString index="99">
            -373 432 24 callgsubr
            432 19 callsubr
          </CharString>
          <CharString index="100">
            0 -219 -125 -509 vvcurveto
            -434 266 434 vlineto
            172 3 182 84 178 vhcurveto
            return
          </CharString>
          <CharString index="101">
            99 34 49 67 99 vvcurveto
            70 -24 56 -48 41 vhcurveto
            42 -47 -61 21 -74 hhcurveto
            -99 -83 -28 -79 -95 hvcurveto
            return
          </CharString>
          <CharString index="102">
            -293 -82 callsubr
            return
          </CharString>
          <CharString index="103">
            1118 rmoveto
            -101 -62 -60 -104 -105 59 -58 104 109 59 58 105 103 -59 61 -109 hvcurveto
            return
          </CharString>
          <CharString index="104">
            -88 callsubr
            endchar
          </CharString>
          <CharString index="105">
            -21 909 25 callgsubr
            return
          </CharString>
          <CharString index="106">
            -73 -59 -21 -42 -45 hvcurveto
            -45 -41 -22 -57 -72 vvcurveto
            return
          </CharString>
          <CharString index="107">
            rmoveto
            -54 -91 -88 -27 -87 hhcurveto
            return
          </CharString>
          <CharString index="108">
            145 44 -55 -176 return
          </CharString>
          <CharString index="109">
            1241 return
          </CharString>
          <CharString index="110">
            -58 callsubr
            -285 -174 -48 0 vhcurveto
            return
          </CharString>
          <CharString index="111">
            0 -20 hstemhm
            return
          </CharString>
          <CharString index="112">
            53 65 46 25 59 hhcurveto
            63 32 -37 -57 -83 -51 -34 -97 hvcurveto
            -84 -150 98 hlineto
            return
          </CharString>
          <CharString index="113">
            -39 callsubr
            hintmask 00000000
            return
          </CharString>
          <CharString index="114">
            37 callgsubr
            320 return
          </CharString>
          <CharString index="115">
            266 vstem
            return
          </CharString>
          <CharString index="116">
            320 rmoveto
            563 -194 vlineto
            -347 -577 rlineto
            -146 345 vlineto
            return
          </CharString>
          <CharString index="117">
            21 238 rlineto
            -267 hlineto
            -24 -282 -14 -154 -39 -64 -45 -58 rlinecurve
            return
          </CharString>
          <CharString index="118">
            20 callsubr
            379 279 vstem
            15 callgsubr
            return
          </CharString>
          <CharString index="119">
            100 27 47 61 35 34 -8 -16 33 vhcurveto
            return
          </CharString>
          <CharString index="120">
            -58 34 callgsubr
            58 57 36 return
          </CharString>
          <CharString index="121">
            -111 219 -348 -219 -348 return
          </CharString>
          <CharString index="122">
            -75 callgsubr
            35 -32 return
          </CharString>
          <CharString index="123">
            33 -143 rlineto
            endchar
          </CharString>
          <CharString index="124">
            -65 hvcurveto
            -14 hlineto
            8 100 4 58 1 17 rrcurveto
            1 17 0 16 15 vvcurveto
            return
          </CharString>
          <CharString index="125">
            vstem
            342 934 rmoveto
            41 528 rlineto
            -262 hlineto
            41 -528 rlineto
            return
          </CharString>
          <CharString index="126">
            rmoveto
            234 -503 -234 vlineto
            endchar
          </CharString>
          <CharString index="127">
            235 -38 callgsubr
            return
          </CharString>
          <CharString index="128">
            -530 173 68 173 return
          </CharString>
          <CharString index="129">
            -234 -20 249.380004883 -217.380004883 -21 30 -21 return
          </CharString>
          <CharString index="130">
            -124 -9 -90 -82 -44 vhcurveto
            -116 -62 -151 31 -1 1 rrcurveto
            return
          </CharString>
          <CharString index="131">
            15 callgsubr
            -33 callgsubr
            return
          </CharString>
          <CharString index="132">
            -21 -24 callsubr
            -20 hstem
            86 265 return
          </CharString>
          <CharString index="133">
            91 130 return
          </CharString>
          <CharString index="134">
            30 callgsubr
            hmoveto
            return
          </CharString>
          <CharString index="135">
            -16 callsubr
            -16 callgsubr
            return
          </CharString>
          <CharString index="136">
            -283 -324 211 570 223 571 211 return
          </CharString>
          <CharString index="137">
            18 -471 2023 hstem
            416 207 vstem
            623 return
          </CharString>
          <CharString index="138">
            hhcurveto
            1 callsubr
            hvcurveto
            return
          </CharString>
          <CharString index="139">
            40 callgsubr
            54 271 return
          </CharString>
          <CharString index="140">
            21 -21 1075 215 return
          </CharString>
          <CharString index="141">
            -154 -307 -303 return
          </CharString>
          <CharString index="142">
            81 185 185 return
          </CharString>
          <CharString index="143">
            rlineto
            272 hlineto
            return
          </CharString>
          <CharString index="144">
            328 hstem
            return
          </CharString>
          <CharString index="145">
            115 -20 callgsubr
            211 711 vstem
            return
          </CharString>
          <CharString index="146">
            0 238 return
          </CharString>
          <CharString index="147">
            94 -20 callgsubr
            311 490 vstem
            return
          </CharString>
          <CharString index="148">
            230 4 callsubr
            74 274 291 266 return
          </CharString>
          <CharString index="149">
            292 -84 139 -16 callsubr
            return
          </CharString>
          <CharString index="150">
            -371 -324 199 1389 198 hstem
            return
          </CharString>
          <CharString index="151">
            -272 -33 callgsubr
            272 return
          </CharString>
          <CharString index="152">
            207 -705 -207 vlineto
            return
          </CharString>
          <CharString index="153">
            173 371 return
          </CharString>
          <CharString index="154">
            rmoveto
            -264 hlineto
            return
          </CharString>
          <CharString index="155">
            173 360 228 hstem
            119 189 return
          </CharString>
          <CharString index="156">
            60 callgsubr
            70 callsubr
            vlineto
            endchar
          </CharString>
          <CharString index="157">
            100 -64 61 -91 23 return
          </CharString>
          <CharString index="158">
            160 229 150 211 162 return
          </CharString>
          <CharString index="159">
            vstem
            24 callsubr
            return
          </CharString>
          <CharString index="160">
            21 -21 65 callsubr
            return
          </CharString>
          <CharString index="161">
            87 1049 rmoveto
            96 19 rlineto
            -704 vlineto
            return
          </CharString>
          <CharString index="162">
            47 callgsubr
            hstem
            115 8 callsubr
            return
          </CharString>
          <CharString index="163">
            hstem
            111 331 vstem
            return
          </CharString>
          <CharString index="164">
            46 callsubr
            217 return
          </CharString>
          <CharString index="165">
            59 callsubr
            -94 return
          </CharString>
          <CharString index="166">
            173 hstem
            return
          </CharString>
          <CharString index="167">
            1583 return
          </CharString>
          <CharString index="168">
            -143 rmoveto
            117 -367 -117 return
          </CharString>
          <CharString index="169">
            -289 17 callgsubr
            684 215 return
          </CharString>
          <CharString index="170">
            -143 39 callsubr
            987 237 return
          </CharString>
          <CharString index="171">
            rlineto
            -256 return
          </CharString>
          <CharString index="172">
            hstem
            113 8 callsubr
            379 return
          </CharString>
          <CharString index="173">
            rmoveto
            809 -207 -809 vlineto
            return
          </CharString>
          <CharString index="174">
            rmoveto
            -43 72 91 -22 110 hhcurveto
            return
          </CharString>
          <CharString index="175">
            hintmask 00000000
            hintmask 11101100
            return
          </CharString>
          <CharString index="176">
            52 -38 35 -57 hvcurveto
            return
          </CharString>
          <CharString index="177">
            -266 -1556 return
          </CharString>
          <CharString index="178">
            hmoveto
            -63 callgsubr
            return
          </CharString>
        <CharString name=".notdef">
          172 0 104 1254 104 hstem
          174 105 632 105 vstem
          1016 71 callsubr
          -842 -33 callgsubr
          vlineto
          105 1358 rmoveto
          632 -1254 -632 hlineto
          endchar
        </CharString>
        <CharString name="A">
          -57 callgsubr
          hstem
          0 1094 vstem
          1094 hmoveto
          -103 callsubr
        </CharString>
        <CharString name="AE">
          405 39 callsubr
          131 241 33 -9 callgsubr
          hstem
          684 272 vstem
          1339 1227 rmoveto
          235 -866 vlineto
          -473 -1462 36 callsubr
          113 369 rlineto
          299 -369 655 238 -383 405 355 236 -355 348 hlineto
          -311 hmoveto
          39 -617 -223 hlineto
          170 568 rlineto
          endchar
        </CharString>
        <CharString name="Aacute">
          -35 callsubr
          895 -94 callsubr
          199 -1886 rmoveto
          -103 callsubr
        </CharString>
        <CharString name="Acircumflex">
          -35 callsubr
          409 -91 callsubr
          408 -1907 rmoveto
          -103 callsubr
        </CharString>
        <CharString name="Adieresis">
          -57 callgsubr
          166 48 callgsubr
          216 6 callsubr
          hintmask 11111100
          348 -97 callsubr
          347 -1870 rmoveto
          -103 callsubr
        </CharString>
        <CharString name="Agrave">
          -35 callsubr
          193 -87 callgsubr
          583 -1907 rmoveto
          -103 callsubr
        </CharString>
        <CharString name="Aring">
          -57 callgsubr
          221 133 hstem
          302 144 200 150 vstem
          1094 hmoveto
          -350 1417 rlineto
          35 41 17 52 61 vvcurveto
          69 -24 55 -47 43 vhcurveto
          57 callgsubr
          -1 callsubr
          -62 16 -50 32 -39 vhcurveto
          -350 -1418 -74 callgsubr
          -275 1669 rmoveto
          -27 callgsubr
          140 -1059 -94 callgsubr
        </CharString>
        <CharString name="Atilde">
          -57 callgsubr
          131 -9 callsubr
          0 1094 hintmask 11110100
          763 1880 -25 callsubr
          hintmask 11101100
          -86 callgsubr
          hintmask 11110100
          -72 callsubr
          190 -1880 rmoveto
          -103 callsubr
        </CharString>
        <CharString name="B">
          18 39 callsubr
          409 227 353 235 hstemhm
          129 256 281 272 -248 277 hintmask 11110100
          24 callsubr
          440 vlineto
          123 97 37 75 71 hvcurveto
          71 75 36 104 133 vvcurveto
          188 -69 113 -165 41 vhcurveto
          10 vlineto
          hintmask 11111000
          63 12 50 34 37 57 rrcurveto
          37 57 18 71 85 vvcurveto
          257 -132 113 -304 vhcurveto
          -117 -235 rmoveto
          115 hlineto
          115 51 -49 -121 -121 -41 -62 -115 hvcurveto
          -125 hlineto
          -227 vmoveto
          133 hlineto
          hintmask 11110100
          115 57 -65 -131 -145 -55 -68 -113 hvcurveto
          -137 hlineto
          endchar
        </CharString>
        <CharString name="C">
          -72 -20 239 1026 238 35 callgsubr
          hintmask 10110000
          870 293 rmoveto
          4 callgsubr
          hintmask 11010000
          43 callgsubr
          90 221 rlineto
          -33 callsubr
          -131 89 126 -65 165 hhcurveto
          111 92 24 47 71 hvcurveto
          endchar
        </CharString>
        <CharString name="CR">
          -488 endchar
        </CharString>
        <CharString name="Ccedilla">
          -72 -492 158 314 239 -218 -21 39 -21 1247 238 35 callgsubr
          172 213 hintmask 10010111
          911 1384 rmoveto
          -33 callsubr
          62 -91 79 -59 98 -28 -78 -156 rcurveline
          -79 callsubr
          hvcurveto
          hintmask 10100111
          50 callsubr
          vhcurveto
          27 56 101 4 84 23 66 44 rlinecurve
          hintmask 11001011
          242 vlineto
          4 callgsubr
          43 callgsubr
          endchar
        </CharString>
        <CharString name="D">
          123 39 callsubr
          989 11 callsubr
          -1462 -66 callsubr
          hlineto
          endchar
        </CharString>
        <CharString name="E">
          -54 callgsubr
          hstem
          129 272 vstem
          788 1227 -73 callsubr
        </CharString>
        <CharString name="Eacute">
          -53 callgsubr
          826 -94 callsubr
          -38 -659 -73 callsubr
        </CharString>
        <CharString name="Ecircumflex">
          -53 callgsubr
          320 -91 callsubr
          191 -680 -73 callsubr
        </CharString>
        <CharString name="Edieresis">
          -54 callgsubr
          152 48 callgsubr
          129 272 -271 6 callsubr
          hintmask 11110110
          262 -97 callsubr
          127 -643 rmoveto
          235 vlineto
          hintmask 11101000
          -73 callgsubr
          hlineto
          endchar
        </CharString>
        <CharString name="Egrave">
          -53 callgsubr
          89 -87 callgsubr
          381 -680 -73 callsubr
        </CharString>
        <CharString name="Eth">
          123 39 callsubr
          366 238 385 11 callsubr
          -620 -129 -238 129 -604 -66 callsubr
          366 183 238 -183 hlineto
          endchar
        </CharString>
        <CharString name="Euro">
          -72 -20 239 268 168 123 168 301 238 hstem
          158 268 vstem
          41 946 rmoveto
          -168 117 -123 -117 -168 131 vlineto
          -331 49 165 -176 259 hhcurveto
          102 87 24 47 73 hvcurveto
          242 vlineto
          -49 -83 -78 -25 -72 hhcurveto
          -121 -77 89 179 -34 hvcurveto
          248 168 -264 123 309 168 -295 hlineto
          195 31 75 106 113 hhcurveto
          55 60 -16 -31 64 hvcurveto
          90 215 rlineto
          49 -87 -78 21 -116 hhcurveto
          -255 -171 -188 -351 -51 hvcurveto
          endchar
        </CharString>
        <CharString name="F">
          -182 21 -21 586 235 406 235 hstem
          129 270 vstem
          784 1227 rmoveto
          235 -655 -33 callgsubr
          270 586 359 235 -359 406 vlineto
          endchar
        </CharString>
        <CharString name="G">
          92 -20 239 352 240 432 240 35 callgsubr
          390 266 hintmask 11011100
          1018 811 rmoveto
          -447 -240 181 -335 hlineto
          -11 -45 -45 -6 -44 hhcurveto
          -167 -89 180 328 159 30 126 60 92 hvcurveto
          hintmask 11101100
          93 61 82 46 103 hhcurveto
          72 77 -24 -48 83 hvcurveto
          86 222 rlineto
          60 -106 -111 30 -117 hhcurveto
          -189 -147 -66 -133 -105 hvcurveto
          -105 -133 -52 -183 -235 vvcurveto
          -243 46 -187 91 -129 vhcurveto
          -129 92 131 -65 170 hhcurveto
          143 134 27 54 127 hvcurveto
          endchar
        </CharString>
        <CharString name="H">
          141 21 -21 641 240 581 -20 -38 callgsubr
          359 272 vstem
          1032 71 callsubr
          -272 -581 -359 581 44 callsubr
          641 359 -641 vlineto
          endchar
        </CharString>
        <CharString name="I">
          -406 -47 callgsubr
          178 256 vstem
          434 hmoveto
          -34 callsubr
        </CharString>
        <CharString name="Iacute">
          -31 callsubr
          657 -94 callsubr
          -223 -1886 rmoveto
          -34 callsubr
        </CharString>
        <CharString name="Icircumflex">
          -31 callsubr
          169 -91 callsubr
          -12 -1907 rmoveto
          -34 callsubr
        </CharString>
        <CharString name="Idieresis">
          -406 -67 callgsubr
          172 48 callgsubr
          -24 265 -63 256 -60 58 callgsubr
          hintmask 11110100
          108 -97 callsubr
          hintmask 11001000
          -73 -1870 rmoveto
          -34 callsubr
        </CharString>
        <CharString name="Igrave">
          -31 callsubr
          -50 -87 callgsubr
          166 -1907 rmoveto
          -34 callsubr
        </CharString>
        <CharString name="J">
          -490 -422 242 1642 -20 -38 callgsubr
          vstem
          401 -8 callgsubr
          -272 -1431 hlineto
          -140 -49 -71 -111 -39 -41 7 13 -43 vhcurveto
          -237 vlineto
          -17 41 56 -8 71 hhcurveto
          226 -3 165 182 -4 288 rrcurveto
          endchar
        </CharString>
        <CharString name="K">
          20 -47 callgsubr
          129 272 vstem
          698 829 rmoveto
          338 633 rlineto
          -291 hlineto
          -249 -506 -95 -219 rlineto
          725 44 callsubr
          516 vlineto
          109 109 240 -625 rlineto
          290 hlineto
          endchar
        </CharString>
        <CharString name="L">
          -197 39 callsubr
          1224 -20 -38 callgsubr
          vstem
          401 238 rmoveto
          1224 -272 -33 callgsubr
          649 238 vlineto
          endchar
        </CharString>
        <CharString name="M">
          586 21 -21 1245 40 callgsubr
          129 252 838 258 vstem
          1477 71 callsubr
          -424 vlineto
          -248 -1149 rlineto
          -8 hlineto
          -250 1149 rlineto
          -418 -33 callgsubr
          252 981 hlineto
          80 -6 88 -13 96 vhcurveto
          11 hlineto
          278 -1245 rlineto
          297 hlineto
          277 1243 rlineto
          8 hlineto
          -9 -86 -5 -84 -82 vvcurveto
          -991 vlineto
          endchar
        </CharString>
        <CharString name="N">
          262 -47 callgsubr
          66 callgsubr
          vstem
          1153 hmoveto
          -55 callsubr
        </CharString>
        <CharString name="Ntilde">
          262 -67 callgsubr
          137 -9 callsubr
          66 callgsubr
          hintmask 11101100
          856 1880 -81 callgsubr
          156 -1880 rmoveto
          -55 callsubr
        </CharString>
        <CharString name="O">
          -52 callgsubr
          hstem
          -25 callgsubr
          vstem
          612 1485 -107 callsubr
        </CharString>
        <CharString name="OE">
          426 0 221 -221 238 -237 -21 663 -9 callgsubr
          -217 240 35 callgsubr
          343 272 hintmask 0101100010000000
          1360 hmoveto
          238 -383 405 354 236 -354 348 383 235 -590 vlineto
          hintmask 0011001110000000
          15 -51 -53 8 -54 -38 callsubr
          hintmask 0101100010000000
          49 50 7 13 51 hvcurveto
          hintmask 1001010110000000
          -55 236 rmoveto
          -10 -27 -32 -5 -36 hhcurveto
          -77 callgsubr
          31 31 -5 -9 31 hvcurveto
          endchar
        </CharString>
        <CharString name="Oacute">
          -43 callsubr
          967 -94 callsubr
          -355 -401 -107 callsubr
        </CharString>
        <CharString name="Ocircumflex">
          -43 callsubr
          469 -91 callsubr
          -134 -422 -107 callsubr
        </CharString>
        <CharString name="Odieresis">
          -52 callgsubr
          129 48 callgsubr
          84 278 -86 -39 callsubr
          -84 279 68 callsubr
          408 -97 callsubr
          -195 -385 rmoveto
          -62 callgsubr
          hintmask 11110010
          -101 callsubr
          hintmask 11101100
          -37 callsubr
          hintmask 11110010
          -240 vmoveto
          -92 callgsubr
        </CharString>
        <CharString name="Ograve">
          -43 callsubr
          244 -87 callgsubr
          50 -422 -107 callsubr
        </CharString>
        <CharString name="Oslash">
          199 -20 241 -225 -21 26 -21 1265 240 -2 -20 22 -20 hstemhm
          -25 callgsubr
          hintmask 00000000
          hintmask 00101011
          1102 46 callgsubr
          hintmask 01000111
          -166 76 -72 -142 rlineto
          45 -77 -84 23 -91 -34 callgsubr
          -253 48 -191 97 -129 vhcurveto
          -96 -187 rlineto
          hintmask 00110011
          166 -77 70 139 rlineto
          -38 71 80 -19 90 hhcurveto
          169 129 65 130 91 hvcurveto
          26 callsubr
          45 186 242 vvcurveto
          241 -45 184 -89 128 vhcurveto
          -618 -819 rmoveto
          -14 72 -7 89 105 vvcurveto
          335 85 177 165 59 48 -16 -33 35 vhcurveto
          90 -227 rmoveto
          8 -56 4 -79 -101 vvcurveto
          hintmask 10000111
          -341 -82 -171 -164 -54 -43 13 26 -32 vhcurveto
          endchar
        </CharString>
        <CharString name="Otilde">
          -52 callgsubr
          94 -9 callsubr
          -25 callgsubr
          hintmask 11101100
          825 1880 -81 callgsubr
          -354 -395 -107 callsubr
        </CharString>
        <CharString name="P">
          -40 21 -21 530 236 461 -4 callgsubr
          530 68 vlineto
          296 161 171 311 300 -142 150 -284 hvcurveto
          -99 -235 rmoveto
          66 hlineto
          125 59 -73 -153 -167 -65 -68 -133 hvcurveto
          -52 hlineto
          endchar
        </CharString>
        <CharString name="Q">
          -52 callgsubr
          hstem
          -25 callgsubr
          vstem
          625 -20 rmoveto
          202 -328 rlineto
          314 hlineto
          -269 399 rlineto
          173 113 90 234 335 -57 callsubr
          130 -90 -129 65 -169 -38 callsubr
          2 1265 rmoveto
          -92 callgsubr
        </CharString>
        <CharString name="R">
          4 21 -21 569 234 424 -4 callgsubr
          569 97 vlineto
          231 -569 rlineto
          291 hlineto
          -281 641 rlineto
          125 73 62 129 185 vvcurveto
          293 -140 141 -301 vhcurveto
          -84 -235 rmoveto
          68 hlineto
          124 58 -58 -149 -144 -52 -73 -128 hvcurveto
          -70 hlineto
          endchar
        </CharString>
        <CharString name="S">
          49 callgsubr
          41 callgsubr
          hintmask 10110000
          68 55 62 callgsubr
          hintmask 11001100
          -84 callgsubr
        </CharString>
        <CharString name="Scaron">
          49 callgsubr
          116 328 41 callgsubr
          hintmask 10111000
          792 1907 -90 callsubr
          -724 -1825 62 callgsubr
          hintmask 11010110
          -84 callgsubr
        </CharString>
        <CharString name="T">
          -135 21 -21 1223 239 hstem
          307 271 vstem
          858 1223 rmoveto
          239 -831 -239 280 -1223 271 1223 vlineto
          endchar
        </CharString>
        <CharString name="Thorn">
          -40 21 -21 295 235 465 234 233 -20 -38 callgsubr
          250 275 vstem
          401 1229 rmoveto
          233 44 callsubr
          295 68 vlineto
          297 160 172 311 301 -143 150 -285 hvcurveto
          -97 -234 rmoveto
          68 hlineto
          121 61 -76 -151 -168 -65 -70 -133 hvcurveto
          -52 hlineto
          endchar
        </CharString>
        <CharString name="U">
          -21 callgsubr
          -11 callsubr
          1028 1462 -93 callsubr
        </CharString>
        <CharString name="Uacute">
          -53 callsubr
          934 -94 callsubr
          94 -424 -93 callsubr
        </CharString>
        <CharString name="Ucircumflex">
          -53 callsubr
          436 -91 callsubr
          315 -445 -93 callsubr
        </CharString>
        <CharString name="Udieresis">
          -21 callgsubr
          172 48 callgsubr
          123 270 -150 -39 callsubr
          -149 270 68 callsubr
          375 -97 callsubr
          hintmask 11110010
          254 -408 -93 callsubr
        </CharString>
        <CharString name="Ugrave">
          -53 callsubr
          210 -87 callgsubr
          500 -445 -93 callsubr
        </CharString>
        <CharString name="V">
          12 -47 callgsubr
          0 1032 vstem
          688 hmoveto
          344 8 callgsubr
          -274 hlineto
          -189 -893 -21 -97 -18 -109 -14 -121 rlinecurve
          -17 142 -17 109 -17 76 -191 893 rcurveline
          -274 hlineto
          342 64 callgsubr
        </CharString>
        <CharString name="W">
          602 -47 callgsubr
          18 1586 vstem
          1341 hmoveto
          263 8 callgsubr
          -269 hlineto
          -127 -825 -11 -63 -17 -131 -23 -197 rlinecurve
          -12 133 -16 129 -21 123 -156 831 rcurveline
          -282 hlineto
          -156 -831 -15 -77 -15 -127 -17 -179 rlinecurve
          -21 177 -17 129 -13 83 -131 825 rcurveline
          -267 hlineto
          265 2 callgsubr
          340 hlineto
          139 762 41 301 8 74 9 -143 16 -123 22 -105 rlinecurve
          143 -766 rlineto
          endchar
        </CharString>
        <CharString name="X">
          -52 -47 callgsubr
          0 969 vstem
          635 748 rmoveto
          309 714 rlineto
          -285 hlineto
          -167 -481 -193 481 rlineto
          -274 hlineto
          309 -702 -334 -760 rlineto
          283 hlineto
          194 524 209 -524 rlineto
          283 hlineto
          endchar
        </CharString>
        <CharString name="Y">
          -59 -47 callgsubr
          346 268 vstem
          614 586 -65 callgsubr
        </CharString>
        <CharString name="Yacute">
          -59 -67 callgsubr
          137 37 callsubr
          346 268 vstem
          836 -94 callsubr
          -222 -1300 -65 callgsubr
        </CharString>
        <CharString name="Ydieresis">
          -59 -67 callgsubr
          172 48 callgsubr
          150 265 -69 268 -66 58 callgsubr
          hintmask 11110100
          282 -97 callsubr
          hintmask 11001000
          -67 -1284 -65 callgsubr
        </CharString>
        <CharString name="Z">
          63 callsubr
          hstem
          43 791 vstem
          819 1272 -13 callgsubr
        </CharString>
        <CharString name="Zcaron">
          63 callsubr
          117 37 callsubr
          43 791 vstem
          792 1907 -90 callsubr
          27 -608 -13 callgsubr
        </CharString>
        <CharString name="a">
          -69 callgsubr
          7 callgsubr
          hintmask 01111100
          223 848 -83 callsubr
          hintmask 10111100
          -89 callsubr
          hintmask 01111100
          -102 callsubr
        </CharString>
        <CharString name="aacute">
          -15 callgsubr
          852 -98 callgsubr
          -629 -700 -100 callsubr
        </CharString>
        <CharString name="acircumflex">
          -69 callgsubr
          103 -2 callgsubr
          357 1568 -105 callsubr
          -411 -720 -100 callsubr
        </CharString>
        <CharString name="acute">
          40 callsubr
          801 -98 callgsubr
          endchar
        </CharString>
        <CharString name="adieresis">
          -69 callgsubr
          139 256 36 callgsubr
          -166 -39 callsubr
          -240 266 hintmask 0111101010000000
          296 1532 -96 callsubr
          hintmask 0111101100000000
          -99 callsubr
          -472 -684 -36 callsubr
          hintmask 1011110010000000
          -56 callgsubr
          hintmask 0111110010000000
          -102 callsubr
        </CharString>
        <CharString name="ae">
          426 -20 208 -208 215 294 193 -162 167 239 211 -207 205 16 callgsubr
          260 -260 266 270 258 hintmask 0000000000000000
          hintmask 0101101011000000
          223 848 -36 callsubr
          90 45 -53 -105 hvcurveto
          -78 -81 callsubr
          -228 111 -120 205 140 97 56 124 76 vhcurveto
          -120 75 115 -60 154 hhcurveto
          120 102 26 51 85 hvcurveto
          219 vlineto
          -54 -87 -89 -27 -90 hhcurveto
          hintmask 0110011101000000
          -26 callsubr
          534 142 hlineto
          157 -35 124 -69 89 vhcurveto
          89 -69 -95 45 -123 hhcurveto
          -95 -80 -30 -61 -66 hvcurveto
          hintmask 0110101101000000
          62 -62 -86 31 -110 hhcurveto
          -51 callgsubr
          hvcurveto
          hintmask 0110011011000000
          723 -350 rmoveto
          165 8 46 83 83 -39 callgsubr
          hintmask 1001011101000000
          -536 -160 -87 callsubr
        </CharString>
        <CharString name="agrave">
          -15 callgsubr
          146 -93 callgsubr
          -241 -721 -100 callsubr
        </CharString>
        <CharString name="alefdageshhb">
          4 0 223 -202 -21 50 173 1067 -20 hstemhm
          86 265 28 189 136 265 hintmask 01111010
          -100 callgsubr
          hintmask 10011110
          -496 -605 rmoveto
          -59 -35 -33 -54 hvcurveto
          hintmask 01111110
          -54 34 -32 60 58 37 34 52 vhcurveto
          hintmask 10011110
          52 -37 35 -58 vhcurveto
          endchar
        </CharString>
        <CharString name="alefpatahhb">
          4 -344 116 249 -80 callgsubr
          -260 -1172 56 callgsubr
        </CharString>
        <CharString name="alefqamatshb">
          4 -365 117 269 25 callsubr
          105 111 137 -89 callgsubr
          -266 -1193 12 callgsubr
        </CharString>
        <CharString name="ampersand">
          170 -20 237 -216 61 callgsubr
          1257 226 4 callsubr
          59 269 -269 1112 -995 248 190 246 hintmask 0010101000000000
          872 hmoveto
          299 hlineto
          -194 270 85 145 56 166 25 187 rlinecurve
          -232 hlineto
          -19 -100 -22 -106 -45 -83 -204 287 rcurveline
          hintmask 0010100110000000
          172 129 67 122 140 vvcurveto
          102 -30 80 -60 57 vhcurveto
          58 -60 -81 29 -101 hhcurveto
          -105 -85 -31 -62 -65 hvcurveto
          -65 -62 -32 -83 -104 vvcurveto
          -51 8 -49 17 -46 vhcurveto
          17 -46 34 -63 51 -79 rrcurveto
          hintmask 0100110000000000
          -163 -112 -81 -139 -165 vvcurveto
          -129 35 -100 71 -73 vhcurveto
          -73 71 99 -36 128 hhcurveto
          135 112 41 81 91 hvcurveto
          hintmask 1001000110000000
          -277 1155 rmoveto
          49 41 -37 -87 -43 -8 -36 -16 -29 hvcurveto
          -15 -29 -28 -31 -41 -31 rrcurveto
          -47 64 -35 59 73 vvcurveto
          83 39 44 61 vhcurveto
          144 -966 rmoveto
          -49 -51 -58 -25 -67 hhcurveto
          hintmask 1000110000000000
          -101 -63 75 124 87 33 74 67 60 hvcurveto
          endchar
        </CharString>
        <CharString name="aring">
          -69 callgsubr
          102 133 201 133 36 callgsubr
          -81 144 195 266 -261 150 hintmask 0111110110000000
          493 -19 callsubr
          hintmask 0111110101000000
          11 callgsubr
          hintmask 0111110110000000
          57 callgsubr
          hintmask 0111110101000000
          -133 vmoveto
          -27 callgsubr
          -270 -725 -36 callsubr
          hintmask 1011111010000000
          -56 callgsubr
          hintmask 0111111010000000
          -102 callsubr
        </CharString>
        <CharString name="asciicircum">
          70 1470 -20 hstem
          14 1065 vstem
          1079 526 rmoveto
          -493 944 rlineto
          -135 hlineto
          -437 -944 rlineto
          222 hlineto
          288 660 330 -660 rlineto
          endchar
        </CharString>
        <CharString name="asciitilde">
          -102 557 330 -328 207 -88 207 hstemhm
          74 770 hintmask 10010000
          844 887 rmoveto
          hintmask 01010000
          -81 -67 -62 -40 -58 hhcurveto
          -27 -25 3 7 -21 hvcurveto
          hintmask 00110000
          -21 7 -33 15 -45 23 -57 29 -42 17 -25 7 rrcurveto
          7 -25 -26 4 -29 hhcurveto
          -78 -69 -36 -73 -60 hvcurveto
          -219 vlineto
          81 68 63 40 59 hhcurveto
          21 20 -2 -5 17 hvcurveto
          hintmask 01010000
          17 -5 36 -16 55 -27 rrcurveto
          -41 79 60 -23 68 hhcurveto
          84 69 36 73 54 hvcurveto
          endchar
        </CharString>
        <CharString name="asterisk">
          -68 737 819 hstem
          53 848 vstem
          557 1249 rmoveto
          37 307 rlineto
          -238 hlineto
          37 -307 -303 86 -37 -221 281 -22 -182 -246 204 -109 117 260 129 -260 199 109 -185 246 285 18 -33 225 rlineto
          endchar
        </CharString>
        <CharString name="at">
          465 -168 180 219 172 519 172 204 179 hstem
          74 205 151 207 200.5 190.5 180 203 vstem
          1104 102 rmoveto
          -60 -125 -121 -30 -119 hhcurveto
          -143 -113 52 104 -82 hvcurveto
          -81 105 -41 145 186 vvcurveto
          133 21 119 42 106 vhcurveto
          42 107 60 82 77 59 rrcurveto
          59 77 89 29 99 hhcurveto
          269 153 -183 -365 -107 -10 -84 -19 -63 hvcurveto
          -62 -19 -27 -31 -33 hhcurveto
          -49 -23 35 109 hvcurveto
          38 vlineto
          21 466 rlineto
          29 -92 -85 14 -79 hhcurveto
          -111 -88 -45 -89 -66 hvcurveto
          -65 -89 -33 -118 -149 vvcurveto
          -251 98 -122 164 92 72 56 84 45 vhcurveto
          8 hlineto
          -84 21 76 -56 92 hhcurveto
          99 76 45 91 55 hvcurveto
          55 91 28 127 163 vvcurveto
          230 -54 179 -109 128 vhcurveto
          128 -109 -152 64 -196 hhcurveto
          -140 -125 -37 -73 -109 hvcurveto
          -109 -73 -85 -103 -60 -135 rrcurveto
          -59 -135 -30 -154 -173 vvcurveto
          -5 -466 264 -302 404 6 rrcurveto
          135 122 29 59 110 hvcurveto
          -273 762 rmoveto
          -189 -11 -28 -90 -67 hhcurveto
          -57 -31 73 128 92 13 76 27 60 hvcurveto
          60 27 35 30 43 hhcurveto
          25 21 -4 -7 16 hvcurveto
          endchar
        </CharString>
        <CharString name="atilde">
          -69 callgsubr
          104 193 -86 192 7 callgsubr
          hintmask 01111001
          714 13 callgsubr
          hintmask 01110101
          -86 callgsubr
          hintmask 10111011
          -72 callsubr
          -632 -694 rmoveto
          52 87 76 26 67 hhcurveto
          -56 callgsubr
          hintmask 01111011
          -102 callsubr
        </CharString>
        <CharString name="b">
          -4 -20 229 -208 -21 41 -2 callsubr
          291 272 hintmask 00101100
          32 callgsubr
          -1556 196 hlineto
          45 127 rlineto
          17 hlineto
          hintmask 01001110
          -109 68 73 -38 100 hhcurveto
          103 81 50 101 58 hvcurveto
          59 101 29 142 185 vvcurveto
          183 -29 141 -58 101 vhcurveto
          101 -58 -80 50 -101 hhcurveto
          -99 -73 -43 -123 17 callsubr
          -604 vmoveto
          hintmask 10010110
          1 119 12 84 22 47 rrcurveto
          47 23 36 24 51 hhcurveto
          97 49 -115 -231 -236 -48 -118 -96 -52 -38 26 53 -23 hvcurveto
          -23 53 -11 91 129 vvcurveto
          endchar
        </CharString>
        <CharString name="backslash">
          -191 -47 callgsubr
          14 803 vstem
          817 hmoveto
          -545 8 callgsubr
          -258 hlineto
          545 64 callgsubr
        </CharString>
        <CharString name="bar">
          30 callsubr
          -471 rmoveto
          2023 -207 -2023 vlineto
          endchar
        </CharString>
        <CharString name="betdageshhb">
          -93 17 callgsubr
          334 45 callgsubr
          173 189 131 -55 callgsubr
          183 -572 -103 callgsubr
        </CharString>
        <CharString name="braceleft">
          29 callsubr
          4 callsubr
          283 247 hintmask 11011000
          705 -8 callgsubr
          -312 -5 -107 -62 -3 -215 rrcurveto
          -328 vlineto
          -123 -93 -49 -165 vhcurveto
          -223 vlineto
          165 93 -49 -132 hvcurveto
          -317 vlineto
          5 -215 102 -64 315 -4 rrcurveto
          211 vlineto
          -68 2 -46 13 -25 23 rrcurveto
          -24 23 -12 36 49 vvcurveto
          315 vlineto
          121 -77 71 -154 23 vhcurveto
          12 vlineto
          152 23 77 76 2 129 rrcurveto
          303 vlineto
          hintmask 11101000
          49 12 35 25 23 vhcurveto
          25 23 46 13 67 2 rrcurveto
          endchar
        </CharString>
        <CharString name="braceright">
          29 callsubr
          hstemhm
          209 248 hintmask 00000000
          hintmask 11110000
          33 1251 rmoveto
          68 -2 46 -12 25 -23 rrcurveto
          25 -23 12 -36 -49 vvcurveto
          -303 vlineto
          3 -129 77 -76 153 -23 rrcurveto
          -12 vlineto
          -152 -23 -81 -74 -121 vvcurveto
          -312 vlineto
          -49 -12 -36 -25 -23 vhcurveto
          -25 -23 -46 -13 -68 -2 rrcurveto
          -211 vlineto
          155 110 21 43 63 hvcurveto
          64 42 32 73 104 vvcurveto
          317 vlineto
          132 89 49 167 vhcurveto
          223 vlineto
          -167 -89 49 123 hvcurveto
          328 vlineto
          103 -32 73 -63 42 vhcurveto
          43 -63 -110 21 -156 hhcurveto
          endchar
        </CharString>
        <CharString name="bracketleft">
          43 callsubr
          133 246 vstem
          602 1264 rmoveto
          198 -469 -1786 469 199 -223 1389 vlineto
          endchar
        </CharString>
        <CharString name="bracketright">
          43 callsubr
          270 246 vstem
          516 -324 rmoveto
          1786 -469 -198 223 -1389 -223 -199 vlineto
          endchar
        </CharString>
        <CharString name="breve">
          106 2 callsubr
          201 hstemhm
          252 160 299 161 hintmask 00000000
          hintmask 11100000
          711 1567 rmoveto
          -7 -45 -13 -33 -21 -19 rrcurveto
          -19 -21 -36 -9 -52 hhcurveto
          -55 -38 9 18 -20 hvcurveto
          -19 18 -12 33 -5 47 rrcurveto
          -160 hlineto
          -207 8 104 -119 195 hhcurveto
          185 113 117 209 15 hvcurveto
          endchar
        </CharString>
        <CharString name="brokenbar">
          30 callsubr
          743 66 callsubr
          207 -1214 66 callsubr
          endchar
        </CharString>
        <CharString name="bullet">
          -270 440 615 hstem
          98 553 vstem
          375 1055 rmoveto
          -179 -98 -110 -197 -195 100 -113 177 173 103 115 193 195 -100 112 -176 hvcurveto
          endchar
        </CharString>
        <CharString name="c">
          -260 -20 229 698 228 hstem
          37 callgsubr
          vstem
          713 279 rmoveto
          -14 callsubr
          76 207 rlineto
          28 callgsubr
          -375 142 -196 265 85 77 22 43 70 hvcurveto
          endchar
        </CharString>
        <CharString name="caron">
          38 callsubr
          922 -78 callgsubr
          endchar
        </CharString>
        <CharString name="ccedilla">
          -260 -492 158 336 -21 39 -21 908 228 hstemhm
          37 callgsubr
          84 213 hintmask 10111100
          729 1065 rmoveto
          28 callgsubr
          -308 96 -188 181 -56 hvcurveto
          -78 -157 rlineto
          -79 callsubr
          hvcurveto
          hintmask 11011100
          50 callsubr
          vhcurveto
          28 57 71 6 66 21 60 37 rlinecurve
          234 vlineto
          -14 callsubr
          endchar
        </CharString>
        <CharString name="cedilla">
          -66 callgsubr
        </CharString>
        <CharString name="cent">
          -72 1 -21 1331 -20 188 -20 hstemhm
          147 273 26 166 hintmask 11101000
          612 1479 rmoveto
          -166 -168 hlineto
          hintmask 11111000
          -203 -48 -96 -190 -336 vvcurveto
          hintmask 11101000
          -319 100 -185 199 -53 vhcurveto
          -200 166 192 vlineto
          65 7 58 21 51 33 rrcurveto
          234 vlineto
          -48 -72 -69 -24 -67 hhcurveto
          hintmask 11111000
          -112 -46 116 228 240 47 115 113 41 49 -17 -33 57 hvcurveto
          78 209 rlineto
          hintmask 11101000
          -58 33 -64 22 -71 11 rrcurveto
          endchar
        </CharString>
        <CharString name="circumflex">
          38 callsubr
          428 -91 callgsubr
          endchar
        </CharString>
        <CharString name="colon">
          -467 -6 -21 1164 -20 hstem
          111 331 -18 callsubr
          -836 vmoveto
          -3 callsubr
        </CharString>
        <CharString name="comma">
          -50 callgsubr
        </CharString>
        <CharString name="copyright">
          668 -20 135 149 178 576 178 -74 -20 246 135 hstemhm
          92 135 230 217 786 135 hintmask 11011111
          -97 callgsubr
          282 -848 rmoveto
          -31 -17 -39 -14 -45 -11 rrcurveto
          -11 -45 -42 -5 -37 hhcurveto
          -152 -61 102 187 hvcurveto
          hintmask 11101111
          181 77 106 136 67 70 -19 -38 74 vhcurveto
          hintmask 11011111
          71 161 rlineto
          hintmask 11101111
          49 -102 -98 25 -95 hhcurveto
          -131 -103 -41 -81 -73 hvcurveto
          -73 -81 -37 -114 -146 vvcurveto
          -148 37 -115 74 -83 vhcurveto
          -82 75 104 -41 134 hhcurveto
          86 82 18 37 77 hvcurveto
          endchar
        </CharString>
        <CharString name="currency">
          92 332 192 400 192 hstem
          162 194 402 190 vstem
          1022 1055 rmoveto
          -139 133 -129 -129 rlineto
          38 -61 -67 19 -71 hhcurveto
          -72 -67 -18 -37 -62 hvcurveto
          -127 127 -137 -137 129 -127 rlineto
          -38 -66 -19 -67 -68 vvcurveto
          -73 19 -67 38 -61 vhcurveto
          -127 -125 135 -135 125 123 rlineto
          -35 55 68 -18 80 hhcurveto
          71 66 18 35 62 hvcurveto
          129 -125 135 135 -125 125 rlineto
          37 59 18 68 76 vvcurveto
          73 -18 68 -37 62 vhcurveto
          -338 -2 rmoveto
          57 48 -20 -39 39 hvcurveto
          39 -39 20 -47 -56 vvcurveto
          -55 -20 -47 -39 -39 vhcurveto
          -39 -39 -48 -19 -57 hhcurveto
          -55 -47 19 39 -39 hvcurveto
          -39 39 -19 47 55 vvcurveto
          57 19 47 39 39 vhcurveto
          39 39 47 19 55 hhcurveto
          endchar
        </CharString>
        <CharString name="d">
          -4 -20 225 -204 61 callgsubr
          905 41 callsubr
          hintmask 00101110
          905 hmoveto
          60 callgsubr
          -266 -372 vlineto
          -41 4 -71 8 -101 vhcurveto
          -16 hlineto
          119 -63 -70 45 -101 hhcurveto
          -102 -80 -51 -103 -58 hvcurveto
          -58 -103 -29 -142 -181 vvcurveto
          -181 30 -141 59 -101 vhcurveto
          hintmask 01001110
          -101 59 81 -51 103 hhcurveto
          108 82 55 110 57 hvcurveto
          9 hlineto
          hintmask 00101110
          45 -145 rlineto
          -70 518 rmoveto
          hintmask 10010110
          -2 -119 -12 -82 -23 -45 rrcurveto
          -45 -23 -36 -22 -49 hhcurveto
          -101 -43 115 231 231 42 123 99 53 37 -26 -53 23 hvcurveto
          23 -53 12 -91 -129 vvcurveto
          endchar
        </CharString>
        <CharString name="dagger">
          4 21 -21 hstem
          113 798 vstem
          580 1139 rmoveto
          55 417 rlineto
          -266 hlineto
          55 -417 -311 30 rlineto
          -229 vlineto
          311 31 -55 -971 rlineto
          266 hlineto
          -55 971 331 69 callgsubr
          endchar
        </CharString>
        <CharString name="daggerdbl">
          4 21 -21 hstem
          102 820 vstem
          590 1180 rmoveto
          55 376 rlineto
          -266 hlineto
          55 -376 53 callgsubr
          -47 -226 47 -241 53 callgsubr
          -55 -377 rlineto
          266 hlineto
          -55 377 332 69 callgsubr
          -332 -30 47 241 -47 226 332 69 callgsubr
          endchar
        </CharString>
        <CharString name="daletdageshhb">
          -176 52 callgsubr
          -203 203 hstemhm
          119 189 100 266 hintmask 11100100
          -19 callgsubr
          hintmask 11011100
          67 callgsubr
          -613 -365 -103 callgsubr
        </CharString>
        <CharString name="degree">
          -189 805 176 326 176 hstem
          76 176 326 178 vstem
          416 46 callgsubr
          -95 -80 -34 -67 -66 hvcurveto
          -66 -67 -33 -79 -93 vvcurveto
          -94 33 -80 65 -66 vhcurveto
          -65 66 81 -33 95 hhcurveto
          95 80 33 65 66 hvcurveto
          66 66 33 80 94 vvcurveto
          93 -34 80 -67 67 vhcurveto
          67 -67 -79 33 -93 hhcurveto
          -176 vmoveto
          45 38 -16 -32 31 hvcurveto
          32 -32 16 -39 -45 vvcurveto
          -45 -16 -38 -32 -32 vhcurveto
          -31 -32 -38 -16 -44 hhcurveto
          -44 -38 16 31 -33 hvcurveto
          -33 32 -16 38 45 vvcurveto
          44 16 38 32 33 vhcurveto
          33 33 38 16 45 hhcurveto
          endchar
        </CharString>
        <CharString name="dieresis">
          110 1276 48 callgsubr
          233 6 callsubr
          hintmask 11100000
          365 -96 callgsubr
          endchar
        </CharString>
        <CharString name="divide">
          -102 618 207 hstem
          332 248 vstem
          457 1217 rmoveto
          -83 -42 -49 -97 -103 53 -42 72 77 46 56 89 95 -42 51 -81 hvcurveto
          354 -599 rmoveto
          45 callsubr
          351 -100 rmoveto
          -83 -42 -48 -97 -103 53 -43 72 77 46 55 91 93 -42 52 -81 hvcurveto
          endchar
        </CharString>
        <CharString name="dollar">
          -72 86 219 1006 -20 hstem
          74 235 105 116 109 235 vstem
          530 60 callgsubr
          rmoveto
          -116 -161 hlineto
          -216 -24 -124 -127 -200 vvcurveto
          -87 22 -73 45 -58 vhcurveto
          45 -57 80 -56 113 -54 35 -16 rcurveline
          -338 vlineto
          -109 5 -124 43 -107 63 rrcurveto
          -246 vlineto
          100 -52 113 -28 127 -4 rrcurveto
          -205 116 209 vlineto
          220 23 124 132 212 vvcurveto
          60 -10 52 -20 44 vhcurveto
          -20 45 -31 39 -42 34 -42 35 -63 35 -85 37 rrcurveto
          1 -10 5 -21 8 vhcurveto
          317 vlineto
          67 -6 76 -24 85 -41 80 213 rcurveline
          -102 51 -103 28 -103 7 rrcurveto
          -116 -490 rmoveto
          -76 31 -29 38 68 vvcurveto
          73 35 41 70 11 vhcurveto
          116 -579 rmoveto
          47 -23 29 -22 13 -20 rrcurveto
          13 -19 7 -25 -30 vvcurveto
          -81 -36 -46 -73 -13 vhcurveto
          endchar
        </CharString>
        <CharString name="dotaccent">
          -451 1262 286 hstem
          131 307 vstem
          285 1548 rmoveto
          -103 -51 -48 -95 -95 54 -48 100 97 56 48 95 95 -51 48 -102 hvcurveto
          endchar
        </CharString>
        <CharString name="dotlessi">
          55 callsubr
          381 hmoveto
          -42 callgsubr
        </CharString>
        <CharString name="e">
          -48 callsubr
          -27 callsubr
          hintmask 11101000
          831 276 0 callsubr
          hintmask 11110100
          -104 callsubr
        </CharString>
        <CharString name="eacute">
          -61 callsubr
          838 -98 callgsubr
          -7 -1272 -95 callsubr
        </CharString>
        <CharString name="ecircumflex">
          -61 callsubr
          349 -91 callgsubr
          205 -1293 -95 callsubr
        </CharString>
        <CharString name="edieresis">
          -48 callsubr
          141 48 callgsubr
          74 270 -188 -39 callsubr
          -202 261 hintmask 00000000
          hintmask 11110110
          288 -96 callgsubr
          144 -1256 0 callsubr
          hintmask 11111001
          -104 callsubr
        </CharString>
        <CharString name="egrave">
          -61 callsubr
          144 -93 callgsubr
          369 -1293 -95 callsubr
        </CharString>
        <CharString name="eight">
          -72 -20 213 1077 211 hstemhm
          72 258 -232 260 232 260 -232 259 hintmask 11101000
          475 1481 rmoveto
          -111 -90 -33 -66 -71 hvcurveto
          hintmask 11011000
          -70 -65 -35 -88 -109 vvcurveto
          -71 15 -63 29 -57 vhcurveto
          30 -56 50 -56 69 -55 rrcurveto
          hintmask 11100100
          -149 -96 -70 -127 -168 vvcurveto
          -125 36 -97 71 -68 vhcurveto
          -67 71 99 -34 126 hhcurveto
          121 98 37 73 73 hvcurveto
          73 73 37 97 119 vvcurveto
          151 -65 123 -171 121 vhcurveto
          hintmask 11101000
          152 101 57 108 137 vvcurveto
          111 -34 88 -68 65 vhcurveto
          65 -68 -91 32 -114 hhcurveto
          hintmask 11011000
          -2 -211 rmoveto
          78 39 -53 -107 -88 -27 -63 -88 -68 hvcurveto
          -46 37 -31 34 -16 33 rrcurveto
          -16 33 -8 38 44 vvcurveto
          103 39 57 76 vhcurveto
          4 -637 rmoveto
          hintmask 11100100
          55 -49 38 -43 19 -37 rrcurveto
          19 -37 10 -40 -42 vvcurveto
          -117 -48 -75 -99 -91 -50 75 117 121 46 77 87 64 vhcurveto
          endchar
        </CharString>
        <CharString name="ellipsis">
          639 -27 328 hstemhm
          111 1437 hintmask 00000000
          hintmask 11000000
          276 301 -74 callsubr
          553 hmoveto
          -88 callsubr
          553 hmoveto
          -3 callsubr
        </CharString>
        <CharString name="emdash">
          559 442 40 callgsubr
          70 1437 vstem
          1507 442 rmoveto
          217 -1437 -217 vlineto
          endchar
        </CharString>
        <CharString name="endash">
          -48 442 40 callgsubr
          70 833 vstem
          903 442 rmoveto
          217 -833 -217 vlineto
          endchar
        </CharString>
        <CharString name="equal">
          -102 422 207 186 205 44 callgsubr
          815 rmoveto
          205 -705 -205 vlineto
          705 -393 rmoveto
          45 callsubr
          endchar
        </CharString>
        <CharString name="eth">
          -8 -20 227 573 211 -21 callsubr
          217 1413 rmoveto
          70 -39 51 -32 33 -25 -193 -123 rcurveline
          96 -145 220 145 89 -93 61 -105 32 -119 rlinecurve
          -12 -3 rlineto
          78 -56 -68 39 -81 hhcurveto
          -123 -95 -45 -89 -67 hvcurveto
          -67 -89 -33 -125 -160 vvcurveto
          -155 38 -122 77 -91 vhcurveto
          -90 77 104 -45 132 hhcurveto
          138 107 52 105 76 hvcurveto
          77 105 38 144 183 vvcurveto
          312 -82 244 -180 188 vhcurveto
          170 110 -94 144 -207 -140 -57 45 -78 48 -99 51 rlinecurve
          199 -791 rmoveto
          95 61 -95 -155 -215 -45 -108 -113 -105 -57 99 177 199 47 98 117 hvcurveto
          endchar
        </CharString>
        <CharString name="exclam">
          -465 -6 -21 1489 -20 56 callsubr
          387 471 rmoveto
          51 991 rlineto
          -319 hlineto
          49 -991 rlineto
          108 -170 rmoveto
          -3 callsubr
        </CharString>
        <CharString name="exclamdown">
          -465 1118 -20 56 callsubr
          274 -4 callsubr
          162 -1487 rmoveto
          -51 990 rlineto
          -221 hlineto
          -51 -990 rlineto
          endchar
        </CharString>
        <CharString name="f">
          -408 14 callgsubr
          hstem
          158 -63 callsubr
          endchar
        </CharString>
        <CharString name="finalkafdageshhb">
          -199 549 48 callsubr
          145 -54 callsubr
          158 -561 -103 callgsubr
        </CharString>
        <CharString name="finalpedageshhb">
          -15 777 173 143 32 callsubr
          84 189 39 -68 callgsubr
          102 517 -103 callgsubr
        </CharString>
        <CharString name="five">
          -72 -20 233 483 219 304 243 hstemhm
          90 770 -274 274 hintmask 11110000
          782 1219 rmoveto
          243 -624 vlineto
          -45 -733 88 -65 rlineto
          21 62 59 11 55 hhcurveto
          hintmask 11101000
          139 70 -78 -155 -167 -72 -83 -143 -46 -50 9 19 -54 hvcurveto
          -53 19 -44 22 -34 25 rrcurveto
          -254 vlineto
          -49 79 104 -24 128 hhcurveto
          144 112 44 89 81 hvcurveto
          81 89 41 124 159 vvcurveto
          133 -33 105 -65 77 vhcurveto
          77 -65 -87 38 -110 hhcurveto
          -49 -43 -4 -8 -37 hvcurveto
          20 316 rlineto
          endchar
        </CharString>
        <CharString name="florin">
          -72 59 callgsubr
          1081 213 230 223 4 callsubr
          299 279 hintmask 11011000
          299 1030 rmoveto
          -166 -78 rlineto
          -135 166 -903 vlineto
          -123 -41 -55 -92 -39 -39 6 12 -39 vhcurveto
          -223 vlineto
          -15 55 57 -8 60 hhcurveto
          232 125 128 243 hvcurveto
          938 221 213 -219 76 vlineto
          hintmask 11101000
          99 30 55 80 41 45 -10 -19 51 vhcurveto
          68 207 rlineto
          30 -71 -81 15 -92 hhcurveto
          -248 -104 -116 -251 hvcurveto
          endchar
        </CharString>
        <CharString name="four">
          -72 21 -21 307 225 930 -20 hstem
          514 256 vstem
          770 532 rmoveto
          930 -291 vlineto
          -442 -934 rlineto
          -221 477 -307 256 307 148 225 vlineto
          -392 574 rmoveto
          -7 -130 -5 -136 rlineto
          -308 -248 vlineto
          176 377 27 59 26 65 23 73 rlinecurve
          endchar
        </CharString>
        <CharString name="fraction">
          -819 -47 callgsubr
          -373 946 vstem
          -170 hmoveto
          -45 callsubr
          endchar
        </CharString>
        <CharString name="g">
          -84 -492 193 287 233 152 180 403 156 -156 179 hstemhm
          18 242 -178 260 219 260 -159 245 hintmask 1110110010000000
          451 221 rmoveto
          -81 -40 23 47 41 28 26 25 23 hvcurveto
          -5 16 25 -3 33 hhcurveto
          hintmask 1110110100000000
          115 89 33 67 64 hvcurveto
          64 67 32 92 118 vvcurveto
          71 -13 58 -26 47 vhcurveto
          133 30 rlineto
          hintmask 1111010010000000
          156 -317 vlineto
          hintmask 1110101010000000
          -15 5 -23 5 -29 5 rrcurveto
          5 -29 -26 3 -23 hhcurveto
          -239 -132 -139 -244 -71 13 -64 27 -58 hvcurveto
          27 -58 36 -43 46 -28 -38 -32 -25 -24 -13 -17 rrcurveto
          -24 -32 -14 -36 -45 vvcurveto
          -75 48 -58 68 -27 vhcurveto
          hintmask 1110110010000000
          -135 -43 -80 -99 -124 vvcurveto
          -199 138 -111 247 325 179 147 259 205 -106 102 -189 vhcurveto
          hintmask 1110101100000000
          -159 735 rmoveto
          72 36 -68 -136 -133 -36 -66 -72 -74 -37 66 131 137 37 69 74 hvcurveto
          55 -968 rmoveto
          hintmask 1110110010000000
          59 41 -9 -17 21 hvcurveto
          22 -17 11 -30 -42 vvcurveto
          -107 -81 -65 -161 -103 -57 49 88 92 47 58 72 vhcurveto
          endchar
        </CharString>
        <CharString name="gereshhb">
          -600 1268 22 hstem
          20 380 -29 callgsubr
          endchar
        </CharString>
        <CharString name="germandbls">
          88 -20 208 -167 -21 1346 221 hstemhm
          113 266 414 272 hintmask 01111000
          113 hmoveto
          266 1143 hlineto
          135 54 68 108 99 52 -55 -91 -31 -8 -29 -15 -27 vhcurveto
          -15 -26 -26 -32 -39 -38 rrcurveto
          -72 -71 -32 -64 -83 vvcurveto
          -57 13 -49 25 -42 vhcurveto
          26 -42 43 -43 59 -44 59 -46 38 -37 18 -27 rrcurveto
          18 -27 9 -31 -37 vvcurveto
          hintmask 10111000
          -86 -45 -43 -89 -69 -69 23 47 -70 vhcurveto
          -225 vlineto
          -35 61 77 -18 93 hhcurveto
          244 139 133 225 65 -11 56 -23 47 hvcurveto
          -22 47 -43 49 -63 51 -67 54 -42 38 -18 22 rrcurveto
          -17 22 -9 23 24 vvcurveto
          23 19 31 37 39 vhcurveto
          51 53 rlineto
          71 75 35 87 101 vvcurveto
          101 -37 79 -74 57 vhcurveto
          57 -74 -102 28 -131 hhcurveto
          -276 -156 -147 -269 hvcurveto
          endchar
        </CharString>
        <CharString name="gershayimhb">
          -165 1268 22 hstem
          20 815 -29 callgsubr
          421 22 -59 callgsubr
          endchar
        </CharString>
        <CharString name="gimeldageshhb">
          22 callsubr
          549 173 365 223 hstemhm
          126 189 103 266 hintmask 00111010
          18 callgsubr
          hintmask 10011010
          23 callsubr
          hintmask 01011010
          -22 -247 rlineto
          hintmask 10011010
          39 callgsubr
          hintmask 00111110
          3 callgsubr
          54 -565 -103 callgsubr
        </CharString>
        <CharString name="grave">
          40 callsubr
          311 -93 callgsubr
          endchar
        </CharString>
        <CharString name="greater">
          -102 209 1026 44 callgsubr
          801 rmoveto
          -705 434 rlineto
          -225 vlineto
          490 -287 -490 -289 rlineto
          -225 vlineto
          705 436 rlineto
          endchar
        </CharString>
        <CharString name="guillemotleft">
          121 50 callgsubr
          993 -22 callsubr
          707 348 -40 callgsubr
          -219 348 rlineto
          endchar
        </CharString>
        <CharString name="guillemotright">
          121 50 callgsubr
          993 -23 callsubr
          487 26 rmoveto
          -307 447 -199 14 callsubr
          199 -111 307 445 rlineto
          endchar
        </CharString>
        <CharString name="guilsinglleft">
          -367 50 callgsubr
          506 -22 callsubr
          endchar
        </CharString>
        <CharString name="guilsinglright">
          -367 50 callgsubr
          506 -23 callsubr
          endchar
        </CharString>
        <CharString name="h">
          5 callgsubr
          32 callgsubr
          -1556 266 535 hlineto
          hintmask 11011000
          241 43 133 123 82 41 -82 -163 vhcurveto
          20 callgsubr
          268 -105 140 -204 -111 -82 -55 -109 -53 vhcurveto
          -14 hlineto
          8 115 4 79 45 vvcurveto
          endchar
        </CharString>
        <CharString name="hedageshhb">
          18 21 -21 549 173 371 21 callgsubr
          51 189 49 -49 callgsubr
          -1267 vmoveto
          267 823 -267 hlineto
          412 -101 -103 callgsubr
        </CharString>
        <CharString name="hungarumlaut">
          129 -20 callgsubr
          152 845 vstem
          606 1569 10 callgsubr
          151 vlineto
          45 37 57 51 67 67 68 67 45 50 21 35 rrcurveto
          391 21 10 callgsubr
          149 vlineto
          58 48 61 56 64 64 65 64 40 46 17 29 rrcurveto
          endchar
        </CharString>
        <CharString name="hyphen">
          -8 callsubr
        </CharString>
        <CharString name="i">
          55 callsubr
          250 1548 -28 callgsubr
        </CharString>
        <CharString name="iacute">
          -18 callgsubr
          603 -98 callgsubr
          -222 -1548 -40 callsubr
        </CharString>
        <CharString name="icircumflex">
          -18 callgsubr
          107 -91 callgsubr
          -3 -1569 -40 callsubr
        </CharString>
        <CharString name="idieresis">
          47 callgsubr
          1276 48 callgsubr
          -85 265 -65 266 -68 58 callgsubr
          hintmask 11101000
          47 -96 callgsubr
          hintmask 10010000
          -65 -1532 -40 callsubr
        </CharString>
        <CharString name="igrave">
          -18 callgsubr
          -110 -93 callgsubr
          173 -1569 -40 callsubr
        </CharString>
        <CharString name="j">
          -520 59 callgsubr
          -228 2040 hstemhm
          121 266 hintmask 01100000
          256 1548 rmoveto
          -91 -54 -55 -88 -92 58 -51 87 87 56 54 89 87 -54 56 -89 hvcurveto
          131 -434 rmoveto
          -266 -1208 hlineto
          hintmask 10100000
          -113 -31 -57 -63 -27 -28 6 12 -31 vhcurveto
          -221 vlineto
          -17 37 46 -8 56 hhcurveto
          195 112 131 232 hvcurveto
          endchar
        </CharString>
        <CharString name="k">
          -55 53 callsubr
          823 rmoveto
          733 70 callsubr
          266 377 vlineto
          104 94 201 -471 rlineto
          279 hlineto
          -301 657 282 457 rlineto
          -282 hlineto
          -220 -381 -67 -133 rlineto
          -8 hlineto
          endchar
        </CharString>
        <CharString name="kafdageshhb">
          -227 -20 228 341 48 callsubr
          138 -71 callsubr
          158 -561 -103 callgsubr
        </CharString>
        <CharString name="l">
          -531 53 callsubr
          hmoveto
          49 callsubr
        </CharString>
        <CharString name="lameddageshhb">
          -197 52 callgsubr
          hstemhm
          43 266 -250 189 hintmask 11110000
          780 -30 callsubr
          -471 68 callgsubr
          hlineto
          9 callgsubr
          hintmask 11101000
          -627 -388 -103 callgsubr
        </CharString>
        <CharString name="less">
          -102 209 1026 44 callgsubr
          1010 rmoveto
          225 vlineto
          -705 -434 rlineto
          -156 vlineto
          705 -436 rlineto
          225 vlineto
          -487 289 rlineto
          endchar
        </CharString>
        <CharString name="logicalnot">
          -102 618 207 hstem
          616 195 vstem
          811 250 rmoveto
          575 -705 -207 510 -368 vlineto
          endchar
        </CharString>
        <CharString name="m">
          569 21 -21 909 226 hstem
          113 266 287 268 285 268 vstem
          903 942 rmoveto
          129 -45 -91 64 -136 hhcurveto
          -105 -100 -51 -113 -53 hvcurveto
          -17 hlineto
          -5 callgsubr
          133 13 96 26 58 vhcurveto
          58 26 42 29 57 hhcurveto
          82 41 -82 -163 hvcurveto
          -664 268 541 vlineto
          257 47 111 117 81 40 -82 -163 vhcurveto
          20 callgsubr
          267 -104 141 -197 -125 -91 -64 -129 -57 vhcurveto
          endchar
        </CharString>
        <CharString name="memdageshhb">
          62 17 callgsubr
          334 173 364 224 -20 -20 20 20 hstemhm
          447 189 78 266 hintmask 11001010
          19 callgsubr
          hintmask 11010010
          -253 hlineto
          hintmask 11001010
          -7 callgsubr
          hintmask 11100010
          -6 callgsubr
          hintmask 11001110
          29 callgsubr
          179 -389 -103 callgsubr
        </CharString>
        <CharString name="multiply">
          -102 276 889 hstem
          92 731 vstem
          823 1053 rmoveto
          -151 112 -215 -282 -213 282 -152 -112 246 -330 -246 -334 152 -113 213 289 215 -289 151 113 -245 334 rlineto
          endchar
        </CharString>
        <CharString name="n">
          5 callgsubr
          356 971 rmoveto
          -5 callgsubr
          hintmask 11011000
          -49 callsubr
        </CharString>
        <CharString name="nine">
          -72 -20 223 -186 -21 520 219 514 232 4 callsubr
          68 266 289 245 hintmask 10101110
          623 684 rmoveto
          -332 -12 -114 -149 -223 hhcurveto
          -39 -43 7 15 -45 hvcurveto
          hintmask 01101110
          -229 vlineto
          hintmask 10101110
          -11 41 52 -5 63 hhcurveto
          377 188 282 563 424 -144 232 -261 -120 -96 -46 -91 -72 hvcurveto
          -71 -91 -36 -124 -156 vvcurveto
          -142 27 -112 55 -81 vhcurveto
          -81 55 77 -41 99 hhcurveto
          109 81 63 105 43 hvcurveto
          hintmask 10110110
          -149 565 rmoveto
          41 32 -28 -57 25 hvcurveto
          25 -56 12 -71 -87 vvcurveto
          -56 -14 -50 -28 -44 vhcurveto
          -43 -28 -33 -22 -38 hhcurveto
          -84 -41 91 153 187 51 83 80 hvcurveto
          endchar
        </CharString>
        <CharString name="ntilde">
          18 21 -21 909 226 0 -20 126 -9 callsubr
          113 266 289 268 hintmask 10110110
          736 13 callgsubr
          hintmask 10101110
          -86 callgsubr
          hintmask 11010110
          -72 callsubr
          -521 -571 rmoveto
          -5 callgsubr
          -49 callsubr
        </CharString>
        <CharString name="numbersign">
          94 21 -21 410 194 252 193 413 -20 hstem
          41 1034 vstem
          885 1049 rmoveto
          59 413 rlineto
          -188 hlineto
          -62 -413 rlineto
          -182 hlineto
          59 413 rlineto
          -188 hlineto
          -59 -413 rlineto
          -230 -193 201 hlineto
          -37 -252 rlineto
          -217 -194 188 hlineto
          -59 -410 rlineto
          192 hlineto
          58 410 rlineto
          182 hlineto
          -61 -410 rlineto
          192 hlineto
          60 410 rlineto
          229 194 -203 hlineto
          37 252 rlineto
          219 193 hlineto
          -592 -193 rmoveto
          183 hlineto
          -37 -252 rlineto
          -180 hlineto
          endchar
        </CharString>
        <CharString name="nundageshhb">
          -305 17 callgsubr
          334 173 365 223 hstemhm
          13 189 145 58 callgsubr
          hintmask 11111000
          -60 callsubr
          5 -568 -103 callgsubr
        </CharString>
        <CharString name="o">
          -26 callgsubr
          -21 callsubr
          508 1135 -104 callgsubr
        </CharString>
        <CharString name="oacute">
          -41 callsubr
          856 -98 callgsubr
          -348 -413 -104 callgsubr
        </CharString>
        <CharString name="ocircumflex">
          -41 callsubr
          368 -91 callgsubr
          -137 -434 -104 callgsubr
        </CharString>
        <CharString name="odieresis">
          -26 callgsubr
          141 48 callgsubr
          37 callgsubr
          -171 -39 callsubr
          -173 272 68 callsubr
          307 -96 callgsubr
          -198 -397 rmoveto
          -36 callgsubr
          hintmask 11110010
          -98 callsubr
          hintmask 11101100
          104 -77 -105 52 -131 hhcurveto
          hintmask 11110010
          -2 -228 -92 callsubr
        </CharString>
        <CharString name="oe">
          512 -20 215 -215 227 282 193 225 228 -205 205 hstemhm
          7 callsubr
          270 274 258 hintmask 00000000
          hintmask 10101111
          1423 276 rmoveto
          -54 -91 -89 -27 -88 hhcurveto
          -133 -82 95 199 -4 hvcurveto
          532 142 hlineto
          158 -35 123 -69 89 vhcurveto
          89 -69 -95 45 -121 hhcurveto
          -117 -94 -47 -93 -71 hvcurveto
          93 -77 -96 47 -116 23 callgsubr
          hintmask 01101111
          -60 callgsubr
          122 100 47 94 77 hvcurveto
          -94 77 105 -47 131 hhcurveto
          118 102 26 51 87 -80 callsubr
          hintmask 01110111
          -704 225 -92 callsubr
        </CharString>
        <CharString name="ogonek">
          -66 callgsubr
        </CharString>
        <CharString name="ograve">
          -41 callsubr
          156 -93 callgsubr
          34 -434 -104 callgsubr
        </CharString>
        <CharString name="one">
          -72 -47 callgsubr
          461 268 vstem
          729 71 callsubr
          -242 vlineto
          -389 -360 152 -166 86 88 58 61 29 34 rlinecurve
          30 34 17 20 5 7 rrcurveto
          -9 -121 -5 -108 -93 vvcurveto
          -858 vlineto
          endchar
        </CharString>
        <CharString name="onehalf">
          577 1 186 533 178 564 -20 hstem
          296 197 803 197 vstem
          493 -70 callgsubr
          183 -586 rmoveto
          -45 callsubr
          771 632 -69 callsubr
        </CharString>
        <CharString name="onequarter">
          54 callgsubr
          1142 -20 hstemhm
          296 197 681 196 hintmask 01111100
          493 -70 callgsubr
          hintmask 10111100
          183 -586 rmoveto
          -45 callsubr
          1094 9 callsubr
          hintmask 01111100
          -45 callgsubr
        </CharString>
        <CharString name="onesuperior">
          -332 70 callgsubr
          303 197 vstem
          500 -70 callgsubr
          endchar
        </CharString>
        <CharString name="ordfeminine">
          -338 758 143 187.5 113.5 129 148 hstem
          57 172 189 168 vstem
          152 1274 rmoveto
          38 63 54 19 46 hhcurveto
          69 34 -40 -79 hvcurveto
          -8 vlineto
          -82 -4 rlineto
          -195 -11 -84 -68 -144 vvcurveto
          -151 76 -68 119 80 67 43 73 43 vhcurveto
          27 -104 rlineto
          117 447 hlineto
          167 -79 95 -155 -85 -86 -26 -52 -85 vhcurveto
          322 -309 rmoveto
          -39 vlineto
          -96 -49 -56 -76 -43 -21 26 52 68 40 31 77 7 vhcurveto
          endchar
        </CharString>
        <CharString name="ordmasculine">
          -334 758 153 414 154 hstem
          61 172 220 172 vstem
          344 1479 rmoveto
          -89 -69 -32 -63 -50 hvcurveto
          -50 -63 -25 -88 -113 vvcurveto
          -110 25 -88 50 -66 vhcurveto
          -65 51 68 -33 87 hhcurveto
          87 69 32 63 51 hvcurveto
          51 64 25 89 114 vvcurveto
          111 -26 87 -51 64 vhcurveto
          65 -51 -68 32 -85 hhcurveto
          -154 vmoveto
          76 33 -64 -141 -141 -33 -68 -76 -76 -35 68 141 141 35 64 76 hvcurveto
          endchar
        </CharString>
        <CharString name="oslash">
          -8 -20 227 -206 -21 927 228 4 callsubr
          74 264 338 262 hintmask 01011100
          895 1116 rmoveto
          -160 74 -51 -96 rlineto
          27 -52 -59 14 -65 23 callgsubr
          -187 47 -146 76 -95 vhcurveto
          -78 -151 162 -76 57 112 rlineto
          -24 49 56 -12 61 hhcurveto
          -75 callsubr
          179 -38 138 -77 99 vhcurveto
          -483 -559 rmoveto
          -2 70 rlineto
          73 vlineto
          hintmask 10101100
          232 56 116 112 29 26 -5 -11 23 vhcurveto
          88 -215 rmoveto
          4 -117 rlineto
          -232 -59 -120 -111 -29 -22 4 8 -17 vhcurveto
          endchar
        </CharString>
        <CharString name="otilde">
          -26 callgsubr
          106 -9 callsubr
          7 callsubr
          272 hintmask 11101100
          722 1542 -81 callgsubr
          -355 -407 -104 callgsubr
        </CharString>
        <CharString name="overscore">
          4 60 callgsubr
          189 hstem
          -6 1036 vstem
          1030 60 callgsubr
          rmoveto
          189 -1036 -189 vlineto
          endchar
        </CharString>
        <CharString name="p">
          22 callgsubr
          268 289 272 hintmask 01011100
          365 969 rmoveto
          -46 145 rlineto
          -206 -1606 38 callgsubr
          -109 64 71 -38 96 hhcurveto
          103 81 -14 callgsubr
          -105 -81 -55 -111 -55 hvcurveto
          2 -373 rmoveto
          -22 callgsubr
        </CharString>
        <CharString name="paragraph">
          63 1364 192 hstem
          479 154 162 153 vstem
          948 -260 rmoveto
          1816 -549 vlineto
          -233 -103 -171 -343 -335 97 -166 213 41 35 6 12 30 hvcurveto
          -819 154 1624 162 -1624 vlineto
          endchar
        </CharString>
        <CharString name="parenleft">
          -354 70 callgsubr
          74 252 vstem
          375 -8 callgsubr
          -195 -232 -106 -316 -353 vvcurveto
          -348 105 -310 196 -227 vhcurveto
          233 hlineto
          -88 120 -69 137 -50 153 rrcurveto
          -50 153 -25 159 165 vvcurveto
          325 97 317 187 257 vhcurveto
          endchar
        </CharString>
        <CharString name="parenright">
          -354 70 callgsubr
          340 252 vstem
          55 -8 callgsubr
          188 -257 97 -317 -325 vvcurveto
          -164 -25 -158 -49 -153 vhcurveto
          -49 -152 -70 -137 -90 -123 rrcurveto
          234 hlineto
          195 224 106 310 351 vvcurveto
          175 -26 165 -51 154 vhcurveto
          -51 155 -75 135 -98 117 rrcurveto
          endchar
        </CharString>
        <CharString name="pedageshhb">
          -44 -20 217 580 173 143 32 callsubr
          60 189 57 -77 callsubr
          78 517 -103 callgsubr
        </CharString>
        <CharString name="percent">
          534 -23 callgsubr
          158 213 hintmask 0000000000000000
          hintmask 0110101111000000
          -46 callsubr
          hintmask 0110011111000000
          604 8 callgsubr
          -209 hlineto
          -602 2 callgsubr
          hintmask 0110101111000000
          -17 -30 callsubr
          55 25 -81 -12 callsubr
          22 81 56 hvcurveto
          hintmask 1001011111000000
          842 -391 rmoveto
          -195 -94 -162 -299 -303 89 -153 200 191 104 159 -30 callgsubr
          2 -194 rmoveto
          55 25 -80 -12 callsubr
          23 80 55 hvcurveto
          endchar
        </CharString>
        <CharString name="period">
          -467 -6 -21 56 callsubr
          276 301 rmoveto
          -3 callsubr
        </CharString>
        <CharString name="periodcentered">
          -467 559 328 56 callsubr
          276 887 rmoveto
          -3 callsubr
        </CharString>
        <CharString name="perthousand">
          1186 -23 callgsubr
          160 213 66 213 157 213 hintmask 0000000000000000
          hintmask 0110101100000000
          -46 callsubr
          hintmask 0100011000000000
          604 8 callgsubr
          -207 hlineto
          -604 2 callgsubr
          hintmask 0010101100000000
          -17 -30 callsubr
          56 24 -81 -12 callsubr
          22 81 56 hvcurveto
          hintmask 1001000011110000
          844 -391 rmoveto
          -194 -97 34 callsubr
          91 -153 200 189 106 159 -30 callgsubr
          649 hmoveto
          -192 -96 34 callsubr
          89 -153 199 192 103 159 -30 callgsubr
          -649 -194 rmoveto
          55 27 -88 -177 -177 -27 -89 -53 -56 -24 35 callsubr
          23 80 55 hvcurveto
          651 hmoveto
          53 27 -88 -177 -185 -24 -81 -56 -56 -21 35 callsubr
          22 80 55 hvcurveto
          endchar
        </CharString>
        <CharString name="plus">
          -102 618 -35 callgsubr
          endchar
        </CharString>
        <CharString name="plusminus">
          -102 0 207 411 -35 callgsubr
          -825 vmoveto
          45 callsubr
          endchar
        </CharString>
        <CharString name="q">
          -4 -20 223 -202 -21 925 209 -209 41 callsubr
          hintmask 01001010
          651 145 rmoveto
          -8 -88 -4 -56 -24 vvcurveto
          -469 266 vlineto
          hintmask 01100010
          1606 -225 vlineto
          -29 -143 rlineto
          -14 hlineto
          hintmask 01001110
          117 -61 -73 47 -104 hhcurveto
          -101 -80 -51 -103 -58 hvcurveto
          -57 -102 -29 -142 -182 vvcurveto
          -181 29 -141 59 -101 vhcurveto
          -101 59 81 -51 104 hhcurveto
          103 76 50 115 56 hvcurveto
          -4 371 rmoveto
          hintmask 10010110
          -1 -112 -13 -80 -23 -49 rrcurveto
          -48 -23 -37 -24 -53 hhcurveto
          -96 -43 112 236 236 46 118 93 107 43 -107 -245 hvcurveto
          endchar
        </CharString>
        <CharString name="qofdageshhb">
          37 21 -21 609 163 303 215 hstemhm
          134 266 0 189 -88 264 hintmask 11110100
          -50 callsubr
          hintmask 11101000
          -361 267 -68 callsubr
          hintmask 11110100
          -360 -1275 rmoveto
          266 1265 -266 hlineto
          endchar
        </CharString>
        <CharString name="question">
          -238 -6 -21 1280 230 4 callsubr
          219 236 16 258 hintmask 00000000
          hintmask 11011000
          119 1176 rmoveto
          51 79 76 26 72 hhcurveto
          87 38 -60 -87 -47 -7 -39 -14 -31 hvcurveto
          -13 -31 -32 -42 -49 -54 rrcurveto
          hintmask 10110000
          -52 -55 -36 -51 -20 -48 rrcurveto
          -19 -47 -10 -56 -64 vvcurveto
          -70 236 61 vlineto
          45 6 36 12 26 vhcurveto
          13 27 28 37 45 49 rrcurveto
          hintmask 10111000
          69 75 46 63 22 53 rrcurveto
          22 53 11 65 76 vvcurveto
          109 -32 84 -64 61 vhcurveto
          61 -63 -87 31 -110 hhcurveto
          -127 -116 -36 -71 -105 hvcurveto
          313 -1075 rmoveto
          -108 -58 -59 -105 -104 59 -60 107 107 59 63 101 103 -57 61 -109 hvcurveto
          endchar
        </CharString>
        <CharString name="questiondown">
          -238 -391 229 1280 -20 hstemhm
          53 258 17 235 hintmask 11010000
          442 -4 callsubr
          121 -497 rmoveto
          -235 -62 hlineto
          -44 -7 -36 -13 -28 vhcurveto
          -13 -27 -28 -37 -44 -47 rrcurveto
          hintmask 11110000
          -55 -60 -37 -47 -20 -35 rrcurveto
          -40 -68 -18 -74 -101 vvcurveto
          -110 32 -85 63 -60 vhcurveto
          -61 63 88 -30 111 hhcurveto
          127 116 35 71 105 hvcurveto
          -96 201 rlineto
          -52 -78 -75 -26 -73 hhcurveto
          -84 -41 62 84 47 7 38 13 31 hvcurveto
          14 31 32 42 49 54 rrcurveto
          hintmask 11010000
          52 57 36 52 19 47 rrcurveto
          20 48 10 55 63 vvcurveto
          endchar
        </CharString>
        <CharString name="quotedbl">
          -107 70 callgsubr
          121 672 18 callsubr
          590 hmoveto
          41 528 rlineto
          -263 hlineto
          41 -528 rlineto
          endchar
        </CharString>
        <CharString name="quotedblbase">
          -34 215 23 hstem
          51 813 vstem
          416 238 -82 callgsubr
          420 23 -82 callgsubr
          endchar
        </CharString>
        <CharString name="quotedblleft">
          -166 65 callgsubr
          814 -42 callsubr
          232 hmoveto
          -27 -59 -31 -75 -35 -91 -35 -91 -27 -84 -21 -79 14 -22 rcurveline
          264 hlineto
          23 156 34 167 44 178 rrcurveto
          endchar
        </CharString>
        <CharString name="quotedblright">
          -166 1440 22 hstem
          20 814 -29 callsubr
          420 22 47 callsubr
          -25 -170 -34 -167 -41 -164 rrcurveto
          202 hlineto
          85 191 59 160 33 128 rrcurveto
          endchar
        </CharString>
        <CharString name="quoteleft">
          -600 65 callgsubr
          379 -42 callsubr
          endchar
        </CharString>
        <CharString name="quoteright">
          -600 1440 22 hstem
          20 379 -29 callsubr
          endchar
        </CharString>
        <CharString name="quotesinglbase">
          -50 callgsubr
        </CharString>
        <CharString name="quotesingle">
          -516 70 callgsubr
          121 262 18 callsubr
          endchar
        </CharString>
        <CharString name="r">
          -330 21 -21 1120 -20 35 -20 hstemhm
          113 266 hintmask 10110000
          362 940 rmoveto
          -30 174 rlineto
          -219 -1114 266 573 hlineto
          195 72 104 129 30 24 -3 -7 19 vhcurveto
          hintmask 11010000
          31 258 rlineto
          hintmask 10110000
          10 -31 -32 5 -33 hhcurveto
          -92 -66 -55 -140 -59 hvcurveto
          endchar
        </CharString>
        <CharString name="rafehhb">
          1449 83 hstem
          -235 470 vstem
          235 1449 rmoveto
          83 -470 -83 vlineto
          endchar
        </CharString>
        <CharString name="registered">
          668 -20 135 501 160 248 162 162 135 hstem
          92 135 316 215 172 217 313 135 vstem
          -97 callgsubr
          -301 -162 rmoveto
          -912 215 342 57 vlineto
          184 -342 rlineto
          238 hlineto
          -219 371 -19 29 rlineto
          99 42 49 78 113 vvcurveto
          191 -106 88 -240 vhcurveto
          -43 -162 rmoveto
          37 hlineto
          92 43 -28 -93 -91 -38 -36 -95 hvcurveto
          -39 hlineto
          endchar
        </CharString>
        <CharString name="reshdageshhb">
          -198 21 -21 549 45 callgsubr
          139 189 125 -46 callgsubr
          190 -573 -103 callgsubr
        </CharString>
        <CharString name="ring">
          96 1239 133 201 133 hstem
          311 144 200 150 vstem
          555 -19 callsubr
          11 callgsubr
          57 callgsubr
          -133 vmoveto
          -27 callgsubr
          endchar
        </CharString>
        <CharString name="s">
          -254 -20 208 736 211 4 callsubr
          61 650 -265 265 hintmask 10110000
          61 45 67 callsubr
          hintmask 11001000
          -84 callsubr
        </CharString>
        <CharString name="samekhdageshhb">
          -10 -20 217 352 45 callgsubr
          37 callgsubr
          65 189 64 -76 callsubr
          -371 -78 callsubr
        </CharString>
        <CharString name="scaron">
          -254 -20 208 736 211 0 -20 126 328 hstemhm
          28 711 -293 265 hintmask 10111000
          739 -78 callgsubr
          -678 -1497 67 callsubr
          hintmask 11010100
          -84 callsubr
        </CharString>
        <CharString name="section">
          -148 -35 178 1233 183 hstemhm
          94 213 -207 230 207 231 -211 221 hintmask 11101000
          82 23 rmoveto
          -39 80 90 -19 151 hhcurveto
          236 129 119 197 96 -40 60 -75 55 hvcurveto
          hintmask 11010100
          83 62 42 87 111 vvcurveto
          67 -17 59 -35 52 vhcurveto
          -35 52 -59 50 -83 47 -84 49 rcurveline
          -97 55 -38 42 49 vvcurveto
          60 37 42 77 96 83 -35 -36 84 vhcurveto
          65 184 rlineto
          39 -96 -101 31 -129 hhcurveto
          -107 -85 -26 -52 -62 hvcurveto
          -61 -52 -31 -70 -89 vvcurveto
          -101 44 -94 79 -53 vhcurveto
          hintmask 11101000
          -80 -53 -49 -88 -105 vvcurveto
          -49 9 -45 19 -40 vhcurveto
          19 -39 27 -37 37 -34 37 -33 66 -44 95 -53 rrcurveto
          95 -55 39 -40 -45 vvcurveto
          -84 -52 -35 -108 -95 -99 24 48 -101 vhcurveto
          371 401 rmoveto
          -55 33 -38 29 -21 25 rrcurveto
          -21 25 -11 32 37 vvcurveto
          65 31 51 35 21 vhcurveto
          hintmask 11100100
          115 -57 69 -76 -84 vvcurveto
          -50 -14 -46 -29 -41 vhcurveto
          endchar
        </CharString>
        <CharString name="semicolon">
          -467 215 23 899 -20 hstem
          51 391 -18 callsubr
          140 -899 -82 callgsubr
          endchar
        </CharString>
        <CharString name="seven">
          -72 21 -21 1219 241 hstem
          80 784 vstem
          864 1276 rmoveto
          184 -784 -241 510 vlineto
          -410 -1219 rlineto
          281 hlineto
          endchar
        </CharString>
        <CharString name="shindageshhb">
          -11 callgsubr
          hstemhm
          552 189 hintmask 11011000
          1254 1290 -82 callsubr
          hintmask 10111000
          -101 callgsubr
          hintmask 11011000
          -560 -235 -103 callgsubr
        </CharString>
        <CharString name="shindageshshindothb">
          -11 callgsubr
          140 173 hstemhm
          552 189 342 189 hintmask 11011110
          1177 -64 callsubr
          77 -83 callgsubr
        </CharString>
        <CharString name="shindageshsindothb">
          -11 callgsubr
          140 173 hstemhm
          33 189 330 189 hintmask 11011110
          127 -64 callsubr
          1127 -83 callgsubr
        </CharString>
        <CharString name="six">
          -72 -20 229 516 219 311 226 -17 -20 hstemhm
          74 270 264 266 hintmask 11011100
          315 776 rmoveto
          5 120 16 93 25 66 rrcurveto
          hintmask 11101100
          133 51 95 67 152 hhcurveto
          45 45 -5 -11 46 hvcurveto
          hintmask 11011100
          225 vlineto
          hintmask 11101100
          8 -31 -67 9 -60 hhcurveto
          -190 -141 -69 -138 -93 hvcurveto
          -93 -137 -46 -218 -298 vvcurveto
          -423 138 -218 261 123 98 45 90 72 vhcurveto
          72 91 36 122 155 vvcurveto
          296 -115 165 -196 -107 -83 -57 -111 -47 vhcurveto
          151 -51 rmoveto
          88 43 -93 -151 -187 -53 -85 -80 -83 -48 106 195 62 12 51 25 41 hvcurveto
          41 25 32 20 39 hhcurveto
          endchar
        </CharString>
        <CharString name="slash">
          -191 -47 callgsubr
          16 801 vstem
          272 hmoveto
          545 8 callgsubr
          -256 hlineto
          -545 64 callgsubr
        </CharString>
        <CharString name="space">
          -514 endchar
        </CharString>
        <CharString name="sterling">
          -72 0 242 409 203 399 230 hstem
          233 267 vstem
          233 854 rmoveto
          -155 -203 155 -157 hlineto
          -65 -11 -52 -22 -40 vhcurveto
          -21 -39 -42 -36 -61 -33 rrcurveto
          -229 827 242 -534 vlineto
          93 67 38 88 121 vvcurveto
          133 241 203 -241 213 vlineto
          124 38 62 76 61 61 -18 -35 61 vhcurveto
          84 211 rlineto
          48 -84 -94 24 -105 hhcurveto
          -237 -128 -145 -265 hvcurveto
          endchar
        </CharString>
        <CharString name="t">
          -356 -20 225 -204 -21 923 211 hstemhm
          141 269 hintmask 01110000
          410 1114 rmoveto
          240 -170 vlineto
          -68 -236 -139 -96 rlineto
          -119 108 -577 vlineto
          -231 92 -115 193 87 65 15 30 43 vhcurveto
          hintmask 10110000
          208 vlineto
          -19 -43 -41 -9 -37 hhcurveto
          -60 -30 37 75 hvcurveto
          586 202 211 vlineto
          endchar
        </CharString>
        <CharString name="tavdageshhb">
          45 -20 223 -182 -21 549 57 callsubr
          hstemhm
          183 267 29 189 28 267 hintmask 01111010
          54 callsubr
          hintmask 10111010
          -43 callgsubr
          hintmask 01111010
          3 callsubr
          hintmask 01111110
          486 -540 -103 callgsubr
        </CharString>
        <CharString name="tetdageshhb">
          18 -20 217 352 46 callsubr
          55 callgsubr
          51 189 78 272 hintmask 00000000
          hintmask 11011110
          -15 callsubr
          hintmask 11101110
          -3 callgsubr
          hintmask 11011110
          42 callgsubr
          54 -579 -103 callgsubr
        </CharString>
        <CharString name="thorn">
          22 callgsubr
          266 291 272 hintmask 01011100
          32 callgsubr
          -2048 38 callgsubr
          -108 63 73 -39 93 hhcurveto
          104 82 -14 callgsubr
          -101 -73 -42 -124 17 callsubr
          -596 vmoveto
          -22 callgsubr
        </CharString>
        <CharString name="three">
          -72 -20 227 442 203 399 232 4 callsubr
          561 268 -241 270 hintmask 00000000
          hintmask 11101000
          186 1155 rmoveto
          64 71 74 32 75 hhcurveto
          99 56 -60 -116 -148 -87 -75 -159 hvcurveto
          -79 -203 83 hlineto
          hintmask 11010100
          179 90 -73 -146 -155 -79 -68 -155 -95 -108 33 53 -88 hvcurveto
          -244 vlineto
          -46 88 109 -23 129 hhcurveto
          145 115 40 80 83 hvcurveto
          84 80 42 107 135 vvcurveto
          197 -105 116 -184 29 vhcurveto
          8 vlineto
          hintmask 11011000
          165 48 95 129 184 vvcurveto
          109 -35 85 -69 62 vhcurveto
          63 -69 -97 31 -123 hhcurveto
          -150 -124 -49 -99 -99 hvcurveto
          endchar
        </CharString>
        <CharString name="threequarters">
          54 callgsubr
          249 51 callsubr
          -19 -20 hstemhm
          412 180 -160 186 562 196 hintmask 0000000000000000
          hintmask 0111110101000000
          147 2 callsubr
          rmoveto
          5 callsubr
          hintmask 0111101011000000
          -41 callgsubr
          hintmask 1011110101000000
          -6 callsubr
          453 -1374 rmoveto
          hintmask 1011101001000000
          -45 callsubr
          1065 9 callsubr
          hintmask 0111101001000000
          -45 callgsubr
        </CharString>
        <CharString name="threesuperior">
          -332 569 51 callsubr
          hstemhm
          408 180 -160 186 hintmask 11101000
          143 2 callsubr
          rmoveto
          hintmask 11110000
          5 callsubr
          hintmask 11101000
          -41 callgsubr
          hintmask 11110000
          -6 callsubr
          endchar
        </CharString>
        <CharString name="tilde">
          115 2 callsubr
          -9 callsubr
          221 694 hintmask 10100000
          774 13 callgsubr
          hintmask 01100000
          -86 callgsubr
          hintmask 10100000
          -72 callsubr
          endchar
        </CharString>
        <CharString name="trademark">
          346 1321 141 hstem
          182 154 217 149 402 153 vstem
          506 1321 rmoveto
          141 -494 -141 170 -580 154 580 vlineto
          921 -580 rmoveto
          721 -239 vlineto
          -117 -489 -106 489 rlineto
          -242 -721 149 344 hlineto
          -4 189 rlineto
          7 hlineto
          122 -533 rlineto
          148 hlineto
          127 533 rlineto
          4 hlineto
          -2 -81 rlineto
          -452 vlineto
          endchar
        </CharString>
        <CharString name="tsadidageshhb">
          -17 17 callgsubr
          182 173 719 -20 21 -20 hstemhm
          119 189 hintmask 11011000
          -56 callsubr
          hintmask 11101000
          10 callsubr
          -358 -161 -103 callgsubr
        </CharString>
        <CharString name="two">
          -72 0 242 2 callsubr
          -20 hstemhm
          61 797 -299 268 hintmask 11100000
          213 1116 rmoveto
          44 49 37 33 31 19 rrcurveto
          19 31 33 9 35 hhcurveto
          hintmask 11010000
          80 55 -56 -112 -48 -6 -47 -13 -45 hvcurveto
          -13 -45 -19 -47 -27 -49 -27 -49 -49 -75 -71 -101 -260 -368 rcurveline
          -203 784 242 -479 8 vlineto
          153 195 94 124 37 54 37 55 30 52 24 50 rrcurveto
          49 101 24 97 112 vvcurveto
          123 -33 97 -67 69 vhcurveto
          69 -66 -92 35 -118 hhcurveto
          -70 -65 -15 -29 -60 hvcurveto
          -60 -29 -65 -55 -70 -79 rrcurveto
          endchar
        </CharString>
        <CharString name="twosuperior">
          -332 586 186 533 178 hstem
          401 197 vstem
          152 1217 -69 callsubr
        </CharString>
        <CharString name="u">
          -17 callgsubr
          -10 callsubr
          hintmask 01110000
          928 hmoveto
          -17 callsubr
          hintmask 10110000
          -90 callgsubr
          hintmask 01110000
          16 callsubr
        </CharString>
        <CharString name="uacute">
          -48 callgsubr
          871 -98 callgsubr
          57 -1548 -85 callgsubr
        </CharString>
        <CharString name="ucircumflex">
          -48 callgsubr
          380 -91 callgsubr
          271 -1569 -85 callgsubr
        </CharString>
        <CharString name="udieresis">
          -17 callgsubr
          1276 48 callgsubr
          102 269 -186 -39 callsubr
          -190 269 hintmask 00000000
          hintmask 01101100
          317 -96 callgsubr
          hintmask 01010010
          212 -1532 rmoveto
          -17 callsubr
          hintmask 10010010
          -90 callgsubr
          hintmask 01010010
          16 callsubr
        </CharString>
        <CharString name="ugrave">
          -48 callgsubr
          160 -93 callgsubr
          450 -1569 -85 callgsubr
        </CharString>
        <CharString name="underscore">
          -324 -324 140 hstem
          -4 704 vstem
          700 -324 rmoveto
          140 -704 -140 vlineto
          endchar
        </CharString>
        <CharString name="uni00A0">
          -488 endchar
        </CharString>
        <CharString name="uni00AD">
          -8 callsubr
        </CharString>
        <CharString name="uni00B5">
          -17 callgsubr
          -10 callsubr
          hintmask 01110000
          928 hmoveto
          -17 callsubr
          hintmask 10110000
          -61 callgsubr
          -84 -39 57 152 hvcurveto
          700 -269 -1606 269 240 vlineto
          95 -3 90 -6 87 vhcurveto
          -27 31 35 -13 39 hhcurveto
          91 66 54 109 42 hvcurveto
          16 hlineto
          hintmask 01110000
          16 callsubr
        </CharString>
        <CharString name="uni05B0">
          -515 173 68 58 callsubr
          187 vstem
          -101 vmoveto
          -28 callsubr
          -241 vmoveto
          -64 callgsubr
          endchar
        </CharString>
        <CharString name="uni05B1">
          21 callsubr
          hstemhm
          -374 187 -35 186 -42 189 77 187 68 callsubr
          -281 -116 rmoveto
          -57 34 callgsubr
          57 58 36 33 53 53 -36 34 -58 hvcurveto
          297 hmoveto
          -95 callgsubr
          57 38 33 53 69 callsubr
          266 hmoveto
          -28 callsubr
          hintmask 11010100
          -411 -241 -32 callsubr
          411 hmoveto
          -64 callgsubr
          endchar
        </CharString>
        <CharString name="uni05B2">
          21 callsubr
          -143 117 hstemhm
          133 186 hintmask 00000000
          hintmask 01010000
          226 -116 -31 callgsubr
          hintmask 10110000
          -178 61 callsubr
          vlineto
          545 -98 -32 callsubr
          endchar
        </CharString>
        <CharString name="uni05B3">
          21 callsubr
          -143 117 hstemhm
          -193 111 216 187 hintmask 00000000
          hintmask 01011000
          228 -116 rmoveto
          -28 callsubr
          hintmask 10111000
          -182 61 callsubr
          128 -202 111 202 vlineto
          310 -98 rmoveto
          -64 callgsubr
          endchar
        </CharString>
        <CharString name="uni05B4">
          -284 1 callgsubr
          -111 -78 callsubr
        </CharString>
        <CharString name="uni05B5">
          -265 59 callsubr
          -242 186 109 190 vstem
          -149 -92 -32 callsubr
          297 hmoveto
          -60 15 callsubr
          60 57 38 34 52 69 callsubr
          endchar
        </CharString>
        <CharString name="uni05B6">
          21 callsubr
          hstemhm
          -245 186 -35 187 -43 190 hintmask 11101000
          -152 -116 -31 callgsubr
          297 hmoveto
          -60 15 callsubr
          60 57 38 33 53 69 callsubr
          hintmask 11010000
          -145 -241 rmoveto
          -64 callgsubr
          endchar
        </CharString>
        <CharString name="uni05B7">
          -234 116 hstem
          -196 393 vstem
          197 -234 56 callgsubr
        </CharString>
        <CharString name="uni05B8">
          -255 117 hstem
          -56 111 vstem
          191 -255 12 callgsubr
        </CharString>
        <CharString name="uni05B9">
          1410 59 callsubr
          -92 189 vstem
          2 -64 callsubr
          endchar
        </CharString>
        <CharString name="uni05BA">
          -65 callsubr
        </CharString>
        <CharString name="uni05BB">
          -651 173 2 173 3 173 hstemhm
          -181 186 -5 187 -2 189 hintmask 10110100
          -88 -127 -31 callgsubr
          hintmask 01001000
          182 -176 rmoveto
          -64 callgsubr
          hintmask 10110100
          185 -175 -103 callgsubr
        </CharString>
        <CharString name="uni05BC">
          570 1 callgsubr
          743 -78 callsubr
        </CharString>
        <CharString name="uni05BD">
          -509 352 hstem
          -52 103 vstem
          51 -509 rmoveto
          352 -103 -352 vlineto
          endchar
        </CharString>
        <CharString name="uni05BE">
          -373 1056 24 callgsubr
          1056 19 callsubr
        </CharString>
        <CharString name="uni05C1">
          -65 callsubr
        </CharString>
        <CharString name="uni05C2">
          -65 callsubr
        </CharString>
        <CharString name="uni05C7">
          -210 100 hstem
          -49 93 vstem
          205 -210 rmoveto
          100 -410 -100 156 -234 93 234 vlineto
          endchar
        </CharString>
        <CharString name="uni05D0">
          4 21 -80 callgsubr
          endchar
        </CharString>
        <CharString name="uni05D1">
          -93 17 callgsubr
          878 40 callgsubr
          493 -55 callgsubr
          endchar
        </CharString>
        <CharString name="uni05D2">
          22 callsubr
          1087 223 hstemhm
          418 266 hintmask 00111000
          18 callgsubr
          hintmask 10011000
          23 callsubr
          hintmask 01011000
          -22 -247 rlineto
          hintmask 10011000
          39 callgsubr
          hintmask 00111000
          3 callgsubr
          endchar
        </CharString>
        <CharString name="uni05D3">
          -176 33 callsubr
          -203 203 hstemhm
          408 266 hintmask 11010000
          -19 callgsubr
          hintmask 10110000
          67 callgsubr
          endchar
        </CharString>
        <CharString name="uni05D4">
          18 21 -21 1093 217 hstem
          113 267 289 -49 callgsubr
          267 -1267 rmoveto
          823 -267 -823 vlineto
          endchar
        </CharString>
        <CharString name="uni05D5">
          -528 21 -21 -24 callsubr
          -20 65 callsubr
          hmoveto
          -24 callsubr
          -266 -1290 vlineto
          endchar
        </CharString>
        <CharString name="uni05D6">
          -450 33 callsubr
          hstemhm
          133 266 -47 189 hintmask 00000000
          hintmask 11010000
          31 callgsubr
          hintmask 11100000
          -7 callsubr
          hintmask 11010000
          35 75 20 34 0 vvcurveto
          endchar
        </CharString>
        <CharString name="uni05D7">
          18 21 -21 1093 27 callsubr
          267 1084 hlineto
          4 28 39 5 33 hhcurveto
          145 44 -55 -176 hvcurveto
          -58 callsubr
          -203 -159 -34 -9 -44 vhcurveto
          endchar
        </CharString>
        <CharString name="uni05D8">
          18 71 callgsubr
          55 callgsubr
          318 272 hintmask 00000000
          hintmask 10111000
          -15 callsubr
          hintmask 11011000
          -3 callgsubr
          hintmask 10111000
          42 callgsubr
          endchar
        </CharString>
        <CharString name="uni05D9">
          -528 -24 callsubr
          -20 65 callsubr
          694 rmoveto
          596 -266 -854 102 vlineto
          endchar
        </CharString>
        <CharString name="uni05DA">
          -199 1082 228 hstem
          453 -54 callsubr
          endchar
        </CharString>
        <CharString name="uni05DB">
          -227 -20 228 874 228 hstem
          446 -71 callsubr
          endchar
        </CharString>
        <CharString name="uni05DC">
          -197 33 callsubr
          hstem
          43 8 callsubr
          309 -30 callsubr
          68 callgsubr
          vlineto
          9 callgsubr
          180 vlineto
          endchar
        </CharString>
        <CharString name="uni05DD">
          18 17 callgsubr
          878 27 callsubr
          823 861 hlineto
          291 -58 26 callgsubr
          -203 -159 -19 -9 -44 vhcurveto
          556 -1067 rmoveto
          -289 874 hlineto
          4 28 39 0 33 31 callsubr
          endchar
        </CharString>
        <CharString name="uni05DE">
          62 17 callgsubr
          871 224 -20 -20 20 20 hstemhm
          714 266 hintmask 10011000
          19 callgsubr
          hintmask 10101000
          -253 hlineto
          hintmask 10011000
          -7 callgsubr
          hintmask 11001000
          -6 callgsubr
          hintmask 10011000
          29 callgsubr
          endchar
        </CharString>
        <CharString name="uni05DF">
          -547 -24 callsubr
          -20 hstem
          94 8 callsubr
          36 -30 callsubr
          0 58 -167 -298 vvcurveto
          -1317 266 1317 vlineto
          298 -58 167 0 vhcurveto
          endchar
        </CharString>
        <CharString name="uni05E0">
          -305 17 callgsubr
          872 223 hstemhm
          347 58 callgsubr
          hintmask 11100000
          -60 callsubr
          endchar
        </CharString>
        <CharString name="uni05E1">
          -10 71 callgsubr
          40 callgsubr
          37 callgsubr
          318 -76 callsubr
          endchar
        </CharString>
        <CharString name="uni05E2">
          -48 1289 -20 21 -20 hstemhm
          43 887 hintmask 01100000
          417 708 rmoveto
          -109 582 rlineto
          -265 hlineto
          218 -1090 -209 -42 rlineto
          -218 vlineto
          283 56 483 96 44 406 18 213 rlinecurve
          hintmask 10100000
          50 578 rlineto
          -267 hlineto
          -53 -622 -11 -127 -51 -138 -78 -91 rlinecurve
          endchar
        </CharString>
        <CharString name="uni05E3">
          -15 1093 32 callsubr
          312 -68 callgsubr
          endchar
        </CharString>
        <CharString name="uni05E4">
          -44 71 callgsubr
          32 callsubr
          306 -77 callsubr
          endchar
        </CharString>
        <CharString name="uni05E5">
          -71 435 190 665 -20 hstem
          201 266 142 8 callsubr
          875 -30 callsubr
          -266 -483 hlineto
          -131 -44 -51 -105 vhcurveto
          -24 hlineto
          -6 36 -123 629 rlineto
          -295 hlineto
          189 -713 rlineto
          -1069 266 927 16 vlineto
          317 75 187 188 hvcurveto
          endchar
        </CharString>
        <CharString name="uni05E6">
          -17 17 callgsubr
          1074 -20 21 -20 hstemhm
          58 902 hintmask 10110000
          -56 callsubr
          hintmask 11010000
          10 callsubr
          endchar
        </CharString>
        <CharString name="uni05E7">
          37 33 callsubr
          hstem
          134 266 101 264 vstem
          -50 callsubr
          -455 -1008 rmoveto
          1265 -266 -1265 vlineto
          endchar
        </CharString>
        <CharString name="uni05E8">
          -198 21 -21 1093 40 callgsubr
          453 -46 callgsubr
          endchar
        </CharString>
        <CharString name="uni05E9">
          -1 callgsubr
          hstem
          43 1211 vstem
          1254 1290 -88 callgsubr
        </CharString>
        <CharString name="uni05EA">
          45 -20 223 -182 -21 1093 217 hstemhm
          183 267 246 267 hintmask 01111000
          54 callsubr
          hintmask 10111000
          -43 callgsubr
          hintmask 01111000
          3 callsubr
          endchar
        </CharString>
        <CharString name="uni20AA">
          568 0 233 824 233 hstem
          133 265 105 265 96 253 116 253 vstem
          133 -30 callsubr
          -1290 265 1057 192 vlineto
          239 35 -82 -248 hvcurveto
          -264 253 264 vlineto
          292 -19 271 -508 vhcurveto
          896 hmoveto
          -253 -514 hlineto
          -331 -93 -212 -316 vhcurveto
          -56 594 -265 -827 322 hlineto
          586 75 454 322 hvcurveto
          endchar
        </CharString>
        <CharString name="uniFB01">
          88 14 callgsubr
          hstem
          158 266 303 -63 callsubr
          704 348 -28 callgsubr
        </CharString>
        <CharString name="uniFB02">
          82 14 callgsubr
          -45 34 hstemhm
          158 266 301 266 hintmask 11011100
          -59 callsubr
          hintmask 11101100
          12 callsubr
          hintmask 11011100
          70 203 rlineto
          hintmask 11101100
          -12 callgsubr
          833 -1200 rmoveto
          hintmask 11011100
          49 callsubr
        </CharString>
        <CharString name="uniFB2A">
          -1 callgsubr
          140 59 callsubr
          1083 189 vstem
          1177 -64 callsubr
          77 -293 -88 callgsubr
        </CharString>
        <CharString name="uniFB2B">
          -1 callgsubr
          140 59 callsubr
          33 189 vstem
          127 -64 callsubr
          1127 -293 -88 callgsubr
        </CharString>
        <CharString name="uniFB35">
          -528 21 -21 552 129 609 63 callgsubr
          113 hmoveto
          266 -24 callsubr
          -266 hlineto
          -99 -609 -37 callgsubr
        </CharString>
        <CharString name="uniFB4B">
          -528 21 -21 -24 callsubr
          -20 140 173 hstemhm
          88 189 -164 266 hintmask 11101000
          182 60 callsubr
          rmoveto
          hintmask 11110000
          -95 callgsubr
          hvcurveto
          hintmask 11101000
          -99 callgsubr
          -69 -1583 rmoveto
          266 -24 callsubr
          -266 hlineto
          endchar
        </CharString>
        <CharString name="v">
          -107 0 213 -192 -21 hstemhm
          0 913 hintmask 01100000
          621 hmoveto
          292 1114 rlineto
          -276 hlineto
          -97 -443 -52 -238 -5 -31 rrcurveto
          hintmask 10100000
          -5 -31 -6 -35 -5 -37 -5 -37 -2 -29 -1 -20 rrcurveto
          -4 hlineto
          -2 25 -5 42 -9 57 -8 58 -7 44 -6 30 -142 645 rcurveline
          -276 hlineto
          291 -1114 rlineto
          endchar
        </CharString>
        <CharString name="w">
          459 0 201 719 194 hstem
          20 1438 vstem
          1235 hmoveto
          223 1114 rlineto
          -260 hlineto
          -106 -614 -14 -80 -12 -100 -9 -119 rlinecurve
          -4 hlineto
          -9 134 -11 100 -13 65 -109 614 rcurveline
          -342 hlineto
          -110 -612 -3 -21 -6 -46 -8 -73 rlinecurve
          -8 -72 -5 -54 -1 -35 rrcurveto
          -6 hlineto
          -10 131 -11 100 -12 68 -102 614 rcurveline
          -267 hlineto
          222 -1114 rlineto
          342 hlineto
          79 445 42 243 6 39 6 40 8 64 10 89 rrcurveto
          4 hlineto
          39 -273 111 -647 rlineto
          endchar
        </CharString>
        <CharString name="x">
          -131 21 -21 hstem
          14 860 vstem
          582 569 rmoveto
          280 545 rlineto
          -274 hlineto
          -137 -340 -148 340 rlineto
          -276 hlineto
          278 -545 -291 -569 rlineto
          277 hlineto
          147 356 158 -356 rlineto
          278 hlineto
          endchar
        </CharString>
        <CharString name="y">
          -107 59 callgsubr
          -228 1606 hstemhm
          0 913 hintmask 01100000
          913 1114 -79 callgsubr
          hintmask 10100000
          -71 callgsubr
        </CharString>
        <CharString name="yacute">
          -107 59 callgsubr
          1505 328 hstemhm
          0 913 hintmask 00000000
          hintmask 11100000
          800 -98 callgsubr
          113 -434 -76 callgsubr
        </CharString>
        <CharString name="ydieresis">
          -107 59 callgsubr
          1540 48 callgsubr
          125 6 callsubr
          hintmask 11110000
          257 -96 callgsubr
          257 -418 -76 callgsubr
        </CharString>
        <CharString name="yen">
          -72 21 -21 229 170 142 170 751 -20 hstem
          342 8 callsubr
          666 711 rmoveto
          276 751 rlineto
          -283 hlineto
          -184 -618 -186 618 rlineto
          -283 hlineto
          277 -751 rlineto
          -187 -170 246 -142 -246 -170 246 -229 266 229 244 170 -244 142 244 170 hlineto
          endchar
        </CharString>
        <CharString name="yoddageshhb">
          -528 780 129 381 63 callgsubr
          215 436 rmoveto
          164 258 rlineto
          596 -266 -854 vlineto
          -99 473 -37 callgsubr
        </CharString>
        <CharString name="z">
          62 callsubr
          hstem
          41 649 vstem
          676 926 -13 callsubr
        </CharString>
        <CharString name="zayindageshhb">
          -450 21 -21 552 129 394 215 hstemhm
          -51 123 61 266 -47 189 hintmask 00000000
          hintmask 11100100
          31 callgsubr
          hintmask 11101000
          -7 callsubr
          hintmask 11110100
          35 75 20 34 0 vvcurveto
          -531 -394 -37 callgsubr
        </CharString>
        <CharString name="zcaron">
          62 callsubr
          127 37 callsubr
          13 711 vstem
          724 -78 callgsubr
          -48 -616 -13 callsubr
        </CharString>
        <CharString name="zero">
          -72 -20 231 -210 -21 1273 232 4 callsubr
          37 callgsubr
          256 272 hintmask 01011100
          475 1485 rmoveto
          -138 -101 -60 -119 -65 hvcurveto
          -65 -119 -32 -192 -264 vvcurveto
          -263 31 -191 61 -119 vhcurveto
          -119 62 102 -59 141 hhcurveto
          141 103 59 118 63 hvcurveto
          64 118 32 191 265 vvcurveto
          269 -31 193 -63 117 vhcurveto
          117 -63 -101 58 -141 hhcurveto
          hintmask 10101100
          -2 -232 rmoveto
          49 33 -37 -73 19 hvcurveto
          19 -73 9 -138 -201 vvcurveto
          -143 -4 -108 -8 -71 vhcurveto
          -141 -16 -34 -57 -67 hhcurveto
          -49 -34 35 71 -18 hvcurveto
          -17 71 -9 138 205 vvcurveto
          202 9 137 17 73 vhcurveto
          73 18 34 37 49 hhcurveto
          endchar
        </CharString>
      <CharString index="0">
        -95 callgsubr
        -99 callgsubr
        return
      </CharString>
      <CharString index="1">
        -107 callgsubr
        endchar
      </CharString>
      <CharString index="2">
        rmoveto
        -318 hlineto
        -15 -35 -26 -50 -36 -65 -36 -65 -32 -51 -27 -35 rrcurveto
        -27 187 vlineto
        59 49 62 56 63 63 63 64 40 46 16 29 rrcurveto
        return
      </CharString>
      <CharString index="3">
        rmoveto
        -136 -106 -51 -102 -77 hvcurveto
        -98 callsubr
        104 -77 -105 52 -131 hhcurveto
        -2 -228 -92 callsubr
      </CharString>
      <CharString index="4">
        rmoveto
        -106 callgsubr
      </CharString>
      <CharString index="5">
        rmoveto
        -21 vlineto
        17 -31 43 -49 67 -67 67 -67 59 -53 50 -40 rrcurveto
        187 27 hlineto
        -25 33 -31 49 -36 63 -35 64 -27 52 -18 40 rrcurveto
        return
      </CharString>
      <CharString index="6">
        -19 221 294 11 79 181 14 182 rlinecurve
        37 480 rlineto
        -263 hlineto
        -38 -483 -10 -123 -37 -52 -91 -6 rlinecurve
        -55 664 rlineto
        -265 hlineto
        103 -1290 rlineto
        363 hlineto
        622 61 539 172 14 hvcurveto
        return
      </CharString>
      <CharString index="7">
        969 33 callgsubr
        -465 hlineto
        -1 -76 -14 -53 -43 -32 -86 184 rcurveline
        -192 442 rlineto
        -307 hlineto
        233 -471 rlineto
        -186 -77 -22 -149 -132 vvcurveto
        -461 265 464 vlineto
        66 11 50 32 32 vhcurveto
        257 -612 rlineto
        308 hlineto
        -218 462 rlineto
        203 74 25 155 137 vvcurveto
        return
      </CharString>
      <CharString index="8">
        58 37 34 52 52 -37 35 -58 hvcurveto
        return
      </CharString>
      <CharString index="9">
        1569 -105 callgsubr
        return
      </CharString>
      <CharString index="10">
        844 46 callgsubr
        -135 -125 -34 -67 -117 hvcurveto
        -117 -67 -91 -92 -67 -117 rrcurveto
        -67 -117 -33 -125 -133 vvcurveto
        -132 32 -124 65 -115 vhcurveto
        65 -115 91 -93 117 -69 rrcurveto
        -69 117 127 -34 138 hhcurveto
        137 125 34 67 115 hvcurveto
        115 67 91 91 67 115 rrcurveto
        67 115 34 126 136 vvcurveto
        139 -35 127 -69 117 vhcurveto
        -69 117 -93 90 -115 65 rrcurveto
        65 -115 -124 32 -131 hhcurveto
        -135 vmoveto
        111 103 -28 -55 95 hvcurveto
        95 -55 75 -76 55 -95 rrcurveto
        55 -95 27 -102 -111 vvcurveto
        -111 -27 -103 -55 -95 vhcurveto
        -55 -95 -75 -75 -95 -55 rrcurveto
        -55 -95 -103 -27 -111 hhcurveto
        -111 -103 27 55 -95 hvcurveto
        -95 55 -75 75 -55 95 rrcurveto
        -55 96 -28 103 110 vvcurveto
        111 27 103 55 95 vhcurveto
        55 95 76 75 95 55 rrcurveto
        55 96 103 28 110 hhcurveto
        return
      </CharString>
      <CharString index="11">
        1532 -106 callsubr
        return
      </CharString>
      <CharString index="12">
        -59 -75 callgsubr
        34 -32 60 return
      </CharString>
      <CharString index="13">
        rmoveto
        -276 hlineto
        56 246 35 157 13 69 13 69 11 64 9 57 3 -28 10 -56 16 -83 17 -83 10 -51 5 -21 rrcurveto
        endchar
      </CharString>
      <CharString index="14">
        1569 -102 callgsubr
        return
      </CharString>
      <CharString index="15">
        163 81 -171 -341 -341 -82 -171 -164 -77 callgsubr
        hvcurveto
        endchar
      </CharString>
      <CharString index="16">
        1569 -105 callsubr
        return
      </CharString>
      <CharString index="17">
        -61 callgsubr
        -87 -36 83 163 hvcurveto
        663 -269 -727 vlineto
        -271 104 -136 200 117 96 62 101 49 vhcurveto
        14 hlineto
        return
      </CharString>
      <CharString index="18">
        265 vstem
        -100 callgsubr
        return
      </CharString>
      <CharString index="19">
        -82 callsubr
        -101 callgsubr
        endchar
      </CharString>
      <CharString index="20">
        1907 -102 callgsubr
        return
      </CharString>
      <CharString index="21">
        -80 -63 106 -115 hhcurveto
        -124 -80 -97 -204 -15 hvcurveto
        141 hlineto
        83 13 24 26 41 hhcurveto
        return
      </CharString>
      <CharString index="22">
        rmoveto
        -17 callsubr
        hintmask 10111000
        -90 callgsubr
        hintmask 01111000
        16 callsubr
      </CharString>
      <CharString index="23">
        260 142 150 273 85 -19 76 -38 67 hvcurveto
        -37 67 -67 65 -95 64 -71 47 -49 41 -29 37 rrcurveto
        -28 37 -14 43 49 vvcurveto
        100 49 62 88 80 69 -35 -37 64 vhcurveto
        90 218 rlineto
        63 -103 -108 31 -112 hhcurveto
        -117 -94 -37 -73 -70 hvcurveto
        -69 -73 -35 -100 -125 vvcurveto
        -65 9 -58 17 -49 vhcurveto
        18 -49 25 -45 32 -40 33 -39 47 -42 63 -43 72 -49 52 -45 31 -41 rrcurveto
        31 -40 16 -44 -49 vvcurveto
        -99 -53 -61 -104 -91 -101 36 71 -109 vhcurveto
        endchar
      </CharString>
      <CharString index="24">
        -5 callsubr
        hintmask 10111110
        -101 callgsubr
        hintmask 11011110
        -560 -235 -103 callgsubr
      </CharString>
      <CharString index="25">
        47 callsubr
        -24 -157 -34 -168 -43 -177 rrcurveto
        203 hlineto
        83 185 58 159 35 135 rrcurveto
        return
      </CharString>
      <CharString index="26">
        -25 callsubr
        hintmask 11011100
        -86 callgsubr
        hintmask 11101100
        -72 callsubr
        return
      </CharString>
      <CharString index="27">
        25 callsubr
        353 -89 callgsubr
        return
      </CharString>
      <CharString index="28">
        rmoveto
        -280 hlineto
        -89 -431 -46 -228 -3 -23 -13 -97 rcurveline
        -5 -41 -3 -28 -1 -16 rrcurveto
        -6 hlineto
        -9 101 -13 78 -15 56 -154 629 rcurveline
        -276 hlineto
        330 -1132 -19 -70 rlineto
        return
      </CharString>
      <CharString index="29">
        1569 -90 callsubr
        return
      </CharString>
      <CharString index="30">
        -163 -85 179 333 335 85 177 165 return
      </CharString>
      <CharString index="31">
        -79 callgsubr
        -71 callgsubr
      </CharString>
      <CharString index="32">
        -35 -58 callgsubr
        return
      </CharString>
      <CharString index="33">
        36 callsubr
        84 369 rlineto
        381 hlineto
        84 -369 rlineto
        return
      </CharString>
      <CharString index="34">
        -659 -33 callgsubr
        659 238 -387 405 359 236 -359 348 return
      </CharString>
      <CharString index="35">
        vstem
        454 426 rmoveto
        51 210 -38 7 rlineto
        -88 16 -54 62 143 vvcurveto
        34 9 195 138 90 return
      </CharString>
      <CharString index="36">
        -117 -28 -59 -59 -89 hhcurveto
        -34 -31 4 8 -27 hvcurveto
        -223 vlineto
        -11 41 47 -6 53 hhcurveto
        107 85 32 64 64 hvcurveto
        64 64 51 105 39 147 rrcurveto
        endchar
      </CharString>
      <CharString index="37">
        586 rmoveto
        876 -162 vlineto
        -272 -227 92 -117 131 113 10 9 7 8 5 7 rlinecurve
        -5 -96 -3 -112 rlineto
        -461 vlineto
        return
      </CharString>
      <CharString index="38">
        -64 1 61 callgsubr
        520 167 239 211 return
      </CharString>
      <CharString index="39">
        266 -72 callgsubr
        75 -89 -358 vhcurveto
        -1138 266 1138 vlineto
        -70 callsubr
        return
      </CharString>
      <CharString index="40">
        21 -21 -47 callsubr
        return
      </CharString>
      <CharString index="41">
        -604 -492 158 258 76 hstem
        184 213 vstem
        279 hmoveto
        -173 hlineto
        -79 -158 rlineto
        -79 callsubr
        50 callsubr
        hvcurveto
        endchar
      </CharString>
      <CharString index="42">
        rmoveto
        347 876 rlineto
        -285 hlineto
        -195 -577 -194 577 rlineto
        -287 hlineto
        346 -887 rlineto
        -575 268 vlineto
        endchar
      </CharString>
      <CharString index="43">
        -58 -36 -33 -54 -54 36 -67 callsubr
        return
      </CharString>
      <CharString index="44">
        1462 return
      </CharString>
      <CharString index="45">
        -171 -130 -65 -129 -91 hvcurveto
        return
      </CharString>
      <CharString index="46">
        -135 -13 -97 -27 -57 vhcurveto
        -57 -26 -42 -29 -57 hhcurveto
        return
      </CharString>
      <CharString index="47">
        -4 -352 178 -231 256 4 rrcurveto
        return
      </CharString>
      <CharString index="48">
        rmoveto
        -266 hlineto
        -21 -137 -33 -168 -46 -196 rrcurveto
        204 hlineto
        84 187 59 161 33 131 rrcurveto
        return
      </CharString>
      <CharString index="49">
        -33 -54 -54 return
      </CharString>
      <CharString index="50">
        74 21 -21 369 241 858 -20 return
      </CharString>
      <CharString index="51">
        -85 callsubr
        -89 callsubr
        return
      </CharString>
      <CharString index="52">
        267 vstem
        84 1076 rmoveto
        0 76 17 145 145 43 -55 -176 vhcurveto
        -647 -409 -215 810 215 -134 646 vlineto
        291 -57 26 callgsubr
        -141 -119 -16 0 vhcurveto
        return
      </CharString>
      <CharString index="53">
        -148 39 callsubr
        405 -9 callgsubr
        return
      </CharString>
      <CharString index="54">
        -54 callgsubr
        117 328 -38 callgsubr
        vstem
        return
      </CharString>
      <CharString index="55">
        199 -20 241 1024 240 return
      </CharString>
      <CharString index="56">
        -130 -120 -35 -70 -111 return
      </CharString>
      <CharString index="57">
        -467 215 23 hstem
        51 379 vstem
        416 238 -82 callgsubr
        endchar
      </CharString>
      <CharString index="58">
        267 vstem
        113 1054 rmoveto
        0 202 39 165 1 callsubr
        vhcurveto
        -58 callsubr
        -263 -143 -43 0 vhcurveto
        return
      </CharString>
      <CharString index="59">
        -17 callgsubr
        -24 callgsubr
        -10 callsubr
        hintmask 01111000
        return
      </CharString>
      <CharString index="60">
        -67 callgsubr
        hstem
        return
      </CharString>
      <CharString index="61">
        267 vstem
        43 1078 rmoveto
        9 90 42 6 89 hhcurveto
        160 29 -73 -158 51 callgsubr
        -59 158 -358 -133 -38 -6 -9 -89 vhcurveto
        return
      </CharString>
      <CharString index="62">
        -159 196 159 111 160 vlineto
        -307 170 rmoveto
        -170 -187 vlineto
        121 201 9 14 11 24 15 34 rlinecurve
        15 34 12 28 8 22 rrcurveto
        endchar
      </CharString>
      <CharString index="63">
        vlineto
        291 -70 282 -341 -116 -71 -12 -15 -66 vhcurveto
        return
      </CharString>
      <CharString index="64">
        -76 -5 -85 -76 -39 -31 18 0 vhcurveto
        -214 vlineto
        0 55 -27 68 284 11 158 226 vhcurveto
        728 vlineto
        2 44 -24 -1 37 31 callsubr
        return
      </CharString>
      <CharString index="65">
        1114 -266 -1114 vlineto
        endchar
      </CharString>
      <CharString index="66">
        103 51 -37 -75 -78 -45 -39 -90 -83 -76 24 48 -71 hvcurveto
        -176 vlineto
        -37 59 81 -19 104 hhcurveto
        201 106 101 161 97 -55 84 -119 28 hvcurveto
        11 vlineto
        return
      </CharString>
      <CharString index="67">
        rmoveto
        -199 111 -307 -447 rlineto
        -26 vlineto
        307 -445 199 111 return
      </CharString>
      <CharString index="68">
        hhcurveto
        81 49 -85 -163 3 hvcurveto
        return
      </CharString>
      <CharString index="69">
        hstem
        129 272 return
      </CharString>
      <CharString index="70">
        rmoveto
        -38 -23 -24 -41 -40 22 -24 39 38 24 25 39 39 -24 26 -38 hvcurveto
        endchar
      </CharString>
      <CharString index="71">
        -136 -106 -51 -102 -77 hvcurveto
        return
      </CharString>
      <CharString index="72">
        207 hstem
        360 197 vstem
        557 825 rmoveto
        373 -197 -373 -254 -207 254 -368 197 368 254 207 vlineto
        return
      </CharString>
      <CharString index="73">
        hhcurveto
        -32 callgsubr
        return
      </CharString>
      <CharString index="74">
        -1462 return
      </CharString>
      <CharString index="75">
        -62 callgsubr
        -62 callsubr
        return
      </CharString>
      <CharString index="76">
        6 callgsubr
        33 53 -44 callsubr
        return
      </CharString>
      <CharString index="77">
        301 305 -98 152 -197 hvcurveto
        return
      </CharString>
      <CharString index="78">
        vstem
        386 1290 -59 callgsubr
        return
      </CharString>
      <CharString index="79">
        rmoveto
        -92 -54 -55 -88 -91 58 -52 88 84 59 52 91 88 -56 55 -87 hvcurveto
        131 -1548 -40 callsubr
      </CharString>
      <CharString index="80">
        57 43 -39 -61 -63 -43 -38 -57 -67 -33 38 63 61 43 39 57 hvcurveto
        return
      </CharString>
      <CharString index="81">
        -8 -20 227 700 228 return
      </CharString>
      <CharString index="82">
        84 278 494 279 return
      </CharString>
      <CharString index="83">
        2 callsubr
        328 return
      </CharString>
      <CharString index="84">
        -18 192 -153 -21 565 193 -53 194 391 193 -21 -20 hstemhm
        63 213 158 213 260 213 return
      </CharString>
      <CharString index="85">
        hintmask 10101100
        224 3 42 89 104 hhcurveto
        97 45 -114 -232 -236 -47 -118 -93 -108 -43 107 245 hvcurveto
        endchar
      </CharString>
      <CharString index="86">
        131 -20 241 2 callsubr
        -20 return
      </CharString>
      <CharString index="87">
        -24 callgsubr
        hstem
        return
      </CharString>
      <CharString index="88">
        826 -30 callsubr
        -799 -215 532 -7 hlineto
        0 -151 -47 -195 vvcurveto
        -826 266 819 vlineto
        return
      </CharString>
      <CharString index="89">
        47 callgsubr
        -20 callgsubr
        115 8 callsubr
        return
      </CharString>
      <CharString index="90">
        18 -20 225 -184 -21 return
      </CharString>
      <CharString index="91">
        582 -292 82 -139 return
      </CharString>
      <CharString index="92">
        -69 callgsubr
        104 -2 callgsubr
        return
      </CharString>
      <CharString index="93">
        51 103 59 hvcurveto
        59 103 30 141 181 vvcurveto
        183 -29 142 -57 100 vhcurveto
        101 -57 -80 50 -101 hhcurveto
        return
      </CharString>
      <CharString index="94">
        rmoveto
        190 -762 -237 453 vlineto
        -467 -1035 rlineto
        -190 791 238 -482 vlineto
        endchar
      </CharString>
      <CharString index="95">
        30 -62 -67 15 -72 hhcurveto
        -228 -97 -119 -248 hvcurveto
        return
      </CharString>
      <CharString index="96">
        271 17 callgsubr
        88 173 -40 190 664 -20 return
      </CharString>
      <CharString index="97">
        90 69 -89 -358 -358 -69 -91 -90 return
      </CharString>
      <CharString index="98">
        236 348 235 return
      </CharString>
      <CharString index="99">
        -63 callgsubr
        rmoveto
        return
      </CharString>
      <CharString index="100">
        0 13 -33 23 -81 vhcurveto
        27 -95 20 -98 -14 -146 -70 -837 rcurveline
        265 hlineto
        76 878 rlineto
        return
      </CharString>
      <CharString index="101">
        0 52 208 139 137 2 -244 -96 vhcurveto
        -531 -240 -215 506 748 vlineto
        return
      </CharString>
      <CharString index="102">
        -32 143 rlineto
        -211 -1114 266 535 hlineto
        return
      </CharString>
      <CharString index="103">
        20 callsubr
        250 275 52 callsubr
        272 return
      </CharString>
      <CharString index="104">
        642 -272 -643 vlineto
        -581 42 callsubr
        vhcurveto
        return
      </CharString>
      <CharString index="105">
        328 7 callgsubr
        hintmask 01111110
        return
      </CharString>
      <CharString index="106">
        271 17 callgsubr
        221 190 664 -20 return
      </CharString>
      <CharString index="107">
        226 4 callsubr
        113 return
      </CharString>
      <CharString index="108">
        58 callsubr
        189 vstem
        return
      </CharString>
      <CharString index="109">
        -33 callgsubr
        rlineto
        return
      </CharString>
      <CharString index="110">
        45 -188 rlineto
        192 926 hlineto
        226 -44 158 -304 -102 -68 -23 0 vhcurveto
        return
      </CharString>
      <CharString index="111">
        -49 -85 -81 -25 -77 hhcurveto
        -177 -88 169 339 163 22 127 45 91 hvcurveto
        return
      </CharString>
      <CharString index="112">
        18 21 -2 callsubr
        289 268 hintmask 10111000
        return
      </CharString>
      <CharString index="113">
        rmoveto
        -58 15 callsubr
        58 57 36 return
      </CharString>
      <CharString index="114">
        16 callgsubr
        266 return
      </CharString>
      <CharString index="115">
        -63 callgsubr
        rlineto
        return
      </CharString>
      <CharString index="116">
        -159 -578 -102 -497 rlineto
        258 hlineto
        102 497 169 613 rlineto
        return
      </CharString>
      <CharString index="117">
        rmoveto
        -280 hlineto
        -17 -37 -25 -49 -35 -61 -35 -61 -32 -52 -30 -41 rrcurveto
        -27 return
      </CharString>
      <CharString index="118">
        74 60 21 43 46 hvcurveto
        47 43 23 58 71 vvcurveto
        69 -24 55 -47 43 vhcurveto
        return
      </CharString>
      <CharString index="119">
        rmoveto
        117 -382 -117 135 -202 111 202 vlineto
        endchar
      </CharString>
      <CharString index="120">
        1542 -25 callsubr
        return
      </CharString>
      <CharString index="121">
        21 -21 903 211 229 224 return
      </CharString>
      <CharString index="122">
        129 -8 callgsubr
        return
      </CharString>
      <CharString index="123">
        36 callgsubr
        258 return
      </CharString>
      <CharString index="124">
        0 215 return
      </CharString>
      <CharString index="125">
        166 1064 rmoveto
        0 68 23 66 97 21 -86 -75 vhcurveto
        -400 vlineto
        return
      </CharString>
      <CharString index="126">
        348 1111 rmoveto
        0 -5 34 -16 55 vhcurveto
        -15 52 -15 38 0 vvcurveto
        return
      </CharString>
      <CharString index="127">
        -664 268 727 vlineto
        return
      </CharString>
      <CharString index="128">
        40 callgsubr
        113 267 return
      </CharString>
      <CharString index="129">
        -4 -20 229 -208 -21 929 0 callgsubr
        return
      </CharString>
      <CharString index="130">
        hhcurveto
        27 callgsubr
        return
      </CharString>
      <CharString index="131">
        234 hstem
        72 503 vstem
        575 return
      </CharString>
      <CharString index="132">
        0 callgsubr
        266 return
      </CharString>
      <CharString index="133">
        158 -359 return
      </CharString>
      <CharString index="134">
        -36 callgsubr
        -51 callsubr
        return
      </CharString>
      <CharString index="135">
        45 -72 -97 25 -83 hhcurveto
        -275 -128 -192 -392 return
      </CharString>
      <CharString index="136">
        290 -45 272 -268 -236 -69 -199 0 vhcurveto
        return
      </CharString>
      <CharString index="137">
        21 callgsubr
        289 267 vstem
        113 return
      </CharString>
      <CharString index="138">
        541 -30 callsubr
        -443 -215 254 -7 hlineto
        return
      </CharString>
      <CharString index="139">
        379 60 callgsubr
        rmoveto
        -266 return
      </CharString>
      <CharString index="140">
        -30 callsubr
        -265 return
      </CharString>
      <CharString index="141">
        -36 -58 callgsubr
        36 -32 return
      </CharString>
      <CharString index="142">
        4 callsubr
        84 278 return
      </CharString>
      <CharString index="143">
        hstemhm
        55 275 return
      </CharString>
      <CharString index="144">
        74 272 return
      </CharString>
      <CharString index="145">
        268 455 hlineto
        19 -5 54 -11 91 vhcurveto
        14 hlineto
        return
      </CharString>
      <CharString index="146">
        0 50 -11 51 233 61 208 0 vhcurveto
        15 hlineto
        return
      </CharString>
      <CharString index="147">
        217 hstem
        return
      </CharString>
      <CharString index="148">
        hstemhm
        68 727 -715 268 178 269 return
      </CharString>
      <CharString index="149">
        275 -84 389 -316 -50 -49 -9 0 vhcurveto
        return
      </CharString>
      <CharString index="150">
        91 45 62 46 78 hhcurveto
        80 67 -41 -41 60 hvcurveto
        return
      </CharString>
      <CharString index="151">
        hstem
        106 705 vstem
        811 return
      </CharString>
      <CharString index="152">
        57 callsubr
        hstem
        return
      </CharString>
      <CharString index="153">
        1483 rmoveto
        return
      </CharString>
      <CharString index="154">
        -524 21 -21 return
      </CharString>
      <CharString index="155">
        256 hstemhm
        return
      </CharString>
      <CharString index="156">
        -174 -20 237 1026 240 0 -20 return
      </CharString>
      <CharString index="157">
        98 918 hstem
        74 return
      </CharString>
      <CharString index="158">
        hvcurveto
        -52 callsubr
        return
      </CharString>
      <CharString index="159">
        21 -21 549 173 353 215 return
      </CharString>
      <CharString index="160">
        -332 30 rlineto
        -229 vlineto
        332 31 return
      </CharString>
      <CharString index="161">
        577 21 -21 22 -21 159 160 return
      </CharString>
      <CharString index="162">
        195 -195 217 hstemhm
        102 272 return
      </CharString>
      <CharString index="163">
        rmoveto
        116 -393 -116 vlineto
        endchar
      </CharString>
      <CharString index="164">
        43 -47 -59 21 -73 hhcurveto
        return
      </CharString>
      <CharString index="165">
        266 hintmask 00000000
        return
      </CharString>
      <CharString index="166">
        -492 228 return
      </CharString>
      <CharString index="167">
        1556 return
      </CharString>
      <CharString index="168">
        -21 41 -21 return
      </CharString>
      <CharString index="169">
        rmoveto
        -50 89 109 -25 127 hhcurveto
        return
      </CharString>
      <CharString index="170">
        -20 hstem
        -47 123 37 8 callsubr
        return
      </CharString>
      <CharString index="171">
        2 callgsubr
        endchar
      </CharString>
      <CharString index="172">
        961 22 479 -20 hstem
        20 return
      </CharString>
      <CharString index="173">
        129 252 522 250 return
      </CharString>
      <CharString index="174">
        122 37 104 115 42 vhcurveto
        return
      </CharString>
      <CharString index="175">
        266 -266 -481 469 return
      </CharString>
      <CharString index="176">
        -31 rlineto
        229 vlineto
        return
      </CharString>
      <CharString index="177">
        -47 callsubr
        hstem
        return
      </CharString>
      <CharString index="178">
        -20 217 896 return
      </CharString>
</ttFont>
